<?xml version="1.0" encoding="UTF-8"?>
<svg width="75px" height="47px" viewBox="0 0 75 47" version="1.1" xmlns="http://www.w3.org/2000/svg" xmlns:xlink="http://www.w3.org/1999/xlink">
    <title>Combined Shape</title>
    <g id="Symbols" stroke="none" stroke-width="1" fill="none" fill-rule="evenodd">
        <g id="icon-/-list" transform="translate(-29.000000, -41.000000)" fill="#3C3C3C">
            <path d="M99.5,79 C101.985281,79 104,81.0147186 104,83.5 C104,85.9852814 101.985281,88 99.5,88 L49.5,88 C47.0147186,88 45,85.9852814 45,83.5 C45,81.0147186 47.0147186,79 49.5,79 L99.5,79 Z M35.5,79 C37.9852814,79 40,81.0147186 40,83.5 C40,85.9852814 37.9852814,88 35.5,88 L33.5,88 C31.0147186,88 29,85.9852814 29,83.5 C29,81.0147186 31.0147186,79 33.5,79 L35.5,79 Z M99.5,60 C101.985281,60 104,62.0147186 104,64.5 C104,66.9852814 101.985281,69 99.5,69 L49.5,69 C47.0147186,69 45,66.9852814 45,64.5 C45,62.0147186 47.0147186,60 49.5,60 L99.5,60 Z M35.5,60 C37.9852814,60 40,62.0147186 40,64.5 C40,66.9852814 37.9852814,69 35.5,69 L33.5,69 C31.0147186,69 29,66.9852814 29,64.5 C29,62.0147186 31.0147186,60 33.5,60 L35.5,60 Z M99.5,41 C101.985281,41 104,43.0147186 104,45.5 C104,47.9852814 101.985281,50 99.5,50 L49.5,50 C47.0147186,50 45,47.9852814 45,45.5 C45,43.0147186 47.0147186,41 49.5,41 L99.5,41 Z M35.5,41 C37.9852814,41 40,43.0147186 40,45.5 C40,47.9852814 37.9852814,50 35.5,50 L33.5,50 C31.0147186,50 29,47.9852814 29,45.5 C29,43.0147186 31.0147186,41 33.5,41 L35.5,41 Z" id="Combined-Shape"></path>
        </g>
    </g>
</svg>