<?xml version="1.0" encoding="UTF-8"?>
<svg width="11px" height="15px" viewBox="0 0 11 15" version="1.1" xmlns="http://www.w3.org/2000/svg" xmlns:xlink="http://www.w3.org/1999/xlink">
    <title>Combined Shape</title>
    <g id="Symbols" stroke="none" stroke-width="1" fill="none" fill-rule="evenodd">
        <g id="layers" transform="translate(-155.000000, -34.000000)" fill="#FFFFFF">
            <g id="nakladki-box">
                <g id="przesuw" transform="translate(0.000000, 31.000000)">
                    <path d="M165.742137,12.2858221 C165.757894,12.300391 165.773075,12.3155718 165.787644,12.3313297 C166.069956,12.6366801 166.076362,13.0988207 165.81889,13.4109439 L165.742137,13.4921185 L161.175551,17.7141556 C160.985381,17.8899766 160.741903,17.9750068 160.500172,17.9692463 C160.258769,17.9752412 160.014881,17.8902191 159.824449,17.7141556 L155.257863,13.4921185 C154.924754,13.184142 154.90438,12.6644392 155.212356,12.3313297 C155.226925,12.3155718 155.242106,12.300391 155.257863,12.2858221 C155.626136,11.9453357 156.19433,11.9453357 156.562602,12.2858221 L160.5,15.925 L164.437398,12.2858221 C164.80567,11.9453357 165.373864,11.9453357 165.742137,12.2858221 Z M160.500172,3.03075373 C160.741903,3.02499321 160.985381,3.11002345 161.175551,3.28584443 L161.175551,3.28584443 L165.742137,7.50788154 L165.81889,7.58905611 C166.076362,7.90117932 166.069956,8.36331994 165.787644,8.66867035 C165.773075,8.68442816 165.757894,8.69960897 165.742137,8.71417786 C165.373864,9.05466429 164.80567,9.05466429 164.437398,8.71417786 L164.437398,8.71417786 L160.5,5.075 L156.562602,8.71417786 C156.19433,9.05466429 155.626136,9.05466429 155.257863,8.71417786 C155.242106,8.69960897 155.226925,8.68442816 155.212356,8.66867035 C154.90438,8.33556082 154.924754,7.81585797 155.257863,7.50788154 L155.257863,7.50788154 L159.824449,3.28584443 C160.014881,3.10978094 160.258769,3.02475882 160.500172,3.03075373 Z" id="Combined-Shape"></path>
                </g>
            </g>
        </g>
    </g>
</svg>