<?xml version="1.0" encoding="UTF-8"?>
<svg width="31px" height="79px" viewBox="0 0 31 79" version="1.1" xmlns="http://www.w3.org/2000/svg" xmlns:xlink="http://www.w3.org/1999/xlink">
    <title>i</title>
    <g id="Symbols" stroke="none" stroke-width="1" fill="none" fill-rule="evenodd">
        <g id="icon-/-info" transform="translate(-59.000000, -23.000000)" fill="#3C3C3C" fill-rule="nonzero">
            <path d="M80.5901136,38 C83.0070617,38 85.1218913,37.2123288 86.9346024,35.6369863 C88.7473135,34.0616438 89.7543752,32.109589 89.9557875,29.7808219 C90.1571999,27.7945205 89.6704534,26.1678082 88.4955481,24.9006849 C87.3206427,23.6335616 85.6254222,23 83.4098864,23 C80.9929383,23 78.8781087,23.7534247 77.0653976,25.260274 C75.2526865,26.7671233 74.2456248,28.7876712 74.0442125,31.3219178 C73.8428001,33.239726 74.3295466,34.8321918 75.5044519,36.0993151 C76.6793573,37.3664384 78.3745778,38 80.5901136,38 Z M67.4628322,102 C69.9187129,102 72.341406,101.275429 74.7309115,99.8262868 C77.1204171,98.3771446 79.0452966,95.6305147 80.5055499,91.5863971 L80.5055499,91.5863971 L82.9946182,84.2058824 L81.1029263,84.2058824 L79.4103599,88.7555147 C78.149232,92.1930147 76.971073,94.5015319 75.8758829,95.6810662 C74.7806929,96.8606005 73.7020966,97.4503676 72.6400942,97.4503676 C71.6444669,97.4503676 71.0139029,96.9954044 70.7484023,96.0854779 C70.4829017,95.1755515 70.6488396,93.8106618 71.2462159,91.9908088 L71.2462159,91.9908088 L81.7998655,61.1544118 C82.5299922,59.064951 82.9282431,56.9249387 82.9946182,54.734375 C83.0609934,52.5438113 82.5133984,50.7071078 81.3518332,49.2242647 C80.190268,47.7414216 78.0496692,47 74.930037,47 C72.341406,47 69.8357439,47.7245711 67.4130508,49.1737132 C64.9903577,50.6228554 63.0488844,53.3694853 61.588631,57.4136029 L61.588631,57.4136029 L59,64.9963235 L60.8916919,64.9963235 L62.5842583,60.2444853 C63.7790111,57.2113971 64.9073887,55.0039828 65.9693912,53.6222426 C67.0313937,52.2405025 68.2261464,51.5496324 69.5536495,51.5496324 C71.5449041,51.5496324 71.9431551,53.3694853 70.7484023,57.0091912 L70.7484023,57.0091912 L60.6925664,86.53125 C59.630564,89.5643382 59.0995627,92.2435662 59.0995627,94.5689338 C59.0995627,96.8943015 59.7633143,98.7141544 61.0908174,100.028493 C62.4183204,101.342831 64.5423254,102 67.4628322,102 Z" id="i"></path>
        </g>
    </g>
</svg>