<?xml version="1.0" encoding="UTF-8"?>
<svg width="159px" height="159px" viewBox="0 0 159 159" version="1.1" xmlns="http://www.w3.org/2000/svg" xmlns:xlink="http://www.w3.org/1999/xlink">
    <title>icon / icon_earth</title>
    <defs>
        <path d="M79.5,0 C123.406638,0 159,35.5933624 159,79.5 C159,123.406638 123.406638,159 79.5,159 C35.5933624,159 0,123.406638 0,79.5 C0,35.5933624 35.5933624,0 79.5,0 Z M69.6071864,6.726682 L69.1718989,6.78657022 C33.4357219,12.0262461 6,42.8091449 6,80 C6,118.397743 35.2452583,149.96489 72.676514,153.64218 C70.6512809,148.949672 66.7070238,141.615201 63.7604278,147.313708 C59.6237712,155.313708 35.7221728,135.313708 31.5855162,131.313708 C27.4488596,127.313708 31.6880086,120.313708 28.5855162,116.313708 C25.4830238,112.313708 35.2780389,111.313708 44.5855162,103.313708 C53.8929935,95.3137085 72.5855162,103.313708 72.5855162,111.313708 C72.5855162,114.909747 93.8092979,105.596097 102.585516,111.313708 C105.412123,113.155212 106.948725,119.821879 107.195322,131.313708 C114.324823,137.985618 118.037323,140.997565 119.2823,142.723247 C123.744741,139.923847 127.887194,136.66018 131.6422,133.000839 L121,133 C117,133 115,130.333333 115,125 C117,123 117,120.333333 115,117 C112,112 109,111 109,106 C109,101 114,91 121,91 C128,91 131,83 134,83 C137,83 142,75 142,72 C142,69 127,68 118,68 C109,68 105,75 105,83 C105,86.825632 97.1719003,91.2211102 94,91 C90.5389564,90.7587339 91.60898,85.60898 89,83 C84,78 86,75 80,75 C74,75 68,80 64,88 C60.1304348,95.7391304 38.4797968,95.9914934 31.6399379,95.9997226 L31,96 C25,96 31,83 31,80 L31.0005899,79.5477469 C31.0127811,76.1884024 31.2769231,68 37,68 C43,68 59.2472541,56.7637294 61,48 C62.7187395,39.4063026 66.0876945,33.4414482 69,35 C71.1710224,36.1618462 72.6728006,44.1622685 75.2776694,44.108694 C80.8544646,43.9939955 87.3131667,43.8657857 94,41 C108,35 92,24 89,22 C86,20 71,32 61,29 C55.0208352,27.2062506 57.8898973,19.7818112 69.6071864,6.726682 Z M43,28.6422964 C43,34.6422964 50,35.6422964 50,40.6422964 C50,43.9756298 47.6666667,48.6422964 43,54.6422964 L31,49.6422964 C31,46.3089631 32,42.9756298 34,39.6422964 C37,34.6422964 43,22.6422964 43,28.6422964 Z" id="path-1"></path>
    </defs>
    <g id="icon-/-icon_earth" stroke="none" stroke-width="1" fill="none" fill-rule="evenodd">
        <g id="color-/-primary">
            <mask id="mask-2" fill="white">
                <use xlink:href="#path-1"></use>
            </mask>
            <use id="Mask" fill="#000000" fill-rule="nonzero" xlink:href="#path-1"></use>
            <g mask="url(#mask-2)" fill="#8AC854" id="Rectangle">
                <g transform="translate(0.000000, -2.000000)">
                    <rect x="0" y="0" width="159" height="161"></rect>
                </g>
            </g>
        </g>
    </g>
</svg>