<?xml version="1.0" encoding="UTF-8"?>
<svg width="60px" height="79px" viewBox="0 0 60 79" version="1.1" xmlns="http://www.w3.org/2000/svg" xmlns:xlink="http://www.w3.org/1999/xlink">
    <title>Combined Shape</title>
    <g id="Symbols" stroke="none" stroke-width="1" fill="none" fill-rule="evenodd">
        <g id="icon-/-trash" transform="translate(-43.000000, -23.000000)" fill="#3C3C3C" fill-rule="nonzero">
            <path d="M97,42 C99.7614237,42 102,43.9752143 102,46.4117647 L102,46.4117647 L102,92.2941176 C102,97.6545285 97.0751322,102 91,102 L91,102 L55,102 C48.9248678,102 44,97.6545285 44,92.2941176 L44,92.2941176 L44,46.4117647 C44,43.9752143 46.2385763,42 49,42 L49,42 Z M96,47 L50,47 L50,91.625 C50,93.9776604 52.1223067,95.8965909 54.7831104,95.9959579 L54.7831104,95.9959579 L55,96 L91,96 C93.7614237,96 96,94.0412458 96,91.625 L96,91.625 L96,47 Z M62,54 C63.5976809,54 64.9036609,55.0165628 64.9949073,56.2983826 L65,56.4418605 L65,86.5581395 C65,87.9067418 63.6568542,89 62,89 C60.4023191,89 59.0963391,87.9834372 59.0050927,86.7016174 L59,86.5581395 L59,56.4418605 C59,55.0932582 60.3431458,54 62,54 Z M73,54 C74.5976809,54 75.9036609,55.0165628 75.9949073,56.2983826 L76,56.4418605 L76,86.5581395 C76,87.9067418 74.6568542,89 73,89 C71.4023191,89 70.0963391,87.9834372 70.0050927,86.7016174 L70,86.5581395 L70,56.4418605 C70,55.0932582 71.3431458,54 73,54 Z M84,54 C85.5976809,54 86.9036609,55.0165628 86.9949073,56.2983826 L87,56.4418605 L87,86.5581395 C87,87.9067418 85.6568542,89 84,89 C82.4023191,89 81.0963391,87.9834372 81.0050927,86.7016174 L81,86.5581395 L81,56.4418605 C81,55.0932582 82.3431458,54 84,54 Z M100,34 C101.656854,34 103,35.3431458 103,37 C103,38.5976809 101.75108,39.9036609 100.176273,39.9949073 L100,40 L46,40 C44.3431458,40 43,38.6568542 43,37 C43,35.4023191 44.24892,34.0963391 45.8237272,34.0050927 L46,34 L100,34 Z M73,23 C77.1867711,23 81.343193,24.1335696 85.4365564,26.3663133 C86.8911014,27.1597015 87.4270749,28.9820114 86.6336867,30.4365564 C85.8402985,31.8911014 84.0179886,32.4270749 82.5634436,31.6336867 C79.3234736,29.8664304 76.1465623,29 73,29 C69.8534377,29 66.6765264,29.8664304 63.4365564,31.6336867 C61.9820114,32.4270749 60.1597015,31.8911014 59.3663133,30.4365564 C58.5729251,28.9820114 59.1088986,27.1597015 60.5634436,26.3663133 C64.656807,24.1335696 68.8132289,23 73,23 Z" id="Combined-Shape"></path>
        </g>
    </g>
</svg>