<?xml version="1.0" encoding="UTF-8"?>
<svg width="79px" height="93px" viewBox="0 0 79 93" version="1.1" xmlns="http://www.w3.org/2000/svg" xmlns:xlink="http://www.w3.org/1999/xlink">
    <title>Combined Shape</title>
    <g id="Symbols" stroke="none" stroke-width="1" fill="none" fill-rule="evenodd">
        <g id="icon-/-user" transform="translate(-33.000000, -16.000000)" fill="#3C3C3C" fill-rule="nonzero">
            <path d="M89.3788474,71.7795936 C103.061206,77.9096646 112,90.9769379 112,105.600226 C112,107.477869 110.462195,109 108.565217,109 C106.668239,109 105.130435,107.477869 105.130435,105.600226 C105.130435,93.7086104 97.8233168,83.0266203 86.5460833,77.9741112 C86.0485093,77.7511844 85.5921462,77.7442201 84.8492901,78.0051418 L84.1364966,78.2933081 C83.9851397,78.3607582 83.8332526,78.4333014 83.6336975,78.5346698 L82.0204585,79.3915934 C78.8931433,81.0746334 76.9179989,81.801807 74.2173913,81.801807 C72.050675,81.801807 70.0928638,81.3250196 67.0834485,80.239766 L65.4382048,79.6290259 C60.9878813,77.9503876 59.2782134,77.5948292 58.1903166,78.093583 C47.0558976,83.1982338 39.8695652,93.8067337 39.8695652,105.600226 C39.8695652,107.477869 38.3317607,109 36.4347826,109 C34.5378046,109 33,107.477869 33,105.600226 C33,91.0971116 41.7923098,78.1178597 55.3031479,71.9237232 C58.6580846,70.3856295 61.2318704,70.8144303 66.9954842,72.9431713 L68.5748253,73.5347557 C71.3733596,74.5808603 72.9296384,75.0022588 74.2173913,75.0022588 C75.3202096,75.0022588 76.3341145,74.6695789 78.1156077,73.7474858 L80.531661,72.4659806 C81.0134969,72.2205462 81.3140008,72.0875992 81.7964914,71.8873856 C84.404549,70.8051501 86.8512019,70.6471392 89.3788474,71.7795936 Z M73,16 C85.3535039,16 95,27.7890547 95,42 C95,56.2109453 85.3535039,68 73,68 C60.6464961,68 51,56.2109453 51,42 C51,27.7890547 60.6464961,16 73,16 Z M71.8291825,38.9523861 L70.7602322,39.4689166 C68.6037046,40.5297726 64.2022995,42.7341366 62.8761123,43.2163466 C61.0951176,43.8639274 59.418042,44.1247019 57.8442181,43.9440995 C58.6183727,53.9194529 65.285298,61.5 73,61.5 C81.2084822,61.5 88.2307692,52.9180108 88.2307692,42 C88.2307692,40.8148489 88.1480248,39.6572235 87.9900005,38.5351127 C80.6752146,37.1918704 75.2734865,37.386923 71.8291825,38.9523861 Z M73,22.5 C66.0974127,22.5 60.0336173,28.5685657 58.2789318,36.9916546 L58.2602494,37.0805186 C58.3446567,37.2670721 58.2303932,37.4735045 58.1593599,37.6102342 C58.1494424,37.6610172 58.1404533,37.7116756 58.1316191,37.7624127 C58.3303493,37.8155296 60.0257265,36.891808 68.5617618,33.0121132 C72.9641928,31.0111739 78.6980256,30.5271887 85.7927385,31.450603 C83.0461721,26.0337756 78.2673037,22.5 73,22.5 Z" id="Combined-Shape"></path>
        </g>
    </g>
</svg>