<?xml version="1.0" encoding="UTF-8"?>
<svg width="87px" height="49px" viewBox="0 0 87 49" version="1.1" xmlns="http://www.w3.org/2000/svg" xmlns:xlink="http://www.w3.org/1999/xlink">
    <title>Combined Shape</title>
    <g id="Symbols" stroke="none" stroke-width="1" fill="none" fill-rule="evenodd">
        <g id="icon-/-menu" transform="translate(-27.000000, -41.000000)" fill="#3C3C3C">
            <path d="M109,80 C111.761424,80 114,82.2385763 114,85 C114,87.7614237 111.761424,90 109,90 L32,90 C29.2385763,90 27,87.7614237 27,85 C27,82.2385763 29.2385763,80 32,80 L109,80 Z M108.5,60 C111.537566,60 114,62.4624339 114,65.5 C114,68.5375661 111.537566,71 108.5,71 L32.5,71 C29.4624339,71 27,68.5375661 27,65.5 C27,62.4624339 29.4624339,60 32.5,60 L108.5,60 Z M109,41 C111.761424,41 114,43.2385763 114,46 C114,48.7614237 111.761424,51 109,51 L32,51 C29.2385763,51 27,48.7614237 27,46 C27,43.2385763 29.2385763,41 32,41 L109,41 Z" id="Combined-Shape"></path>
        </g>
    </g>
</svg>