<?xml version="1.0" encoding="UTF-8"?>
<svg width="17px" height="22px" viewBox="0 0 17 22" version="1.1" xmlns="http://www.w3.org/2000/svg" xmlns:xlink="http://www.w3.org/1999/xlink">
    <!-- Generator: Sketch 63.1 (92452) - https://sketch.com -->
    <title>Combined Shape</title>
    <desc>Created with Sketch.</desc>
    <g id="Main-UI" stroke="none" stroke-width="1" fill="none" fill-rule="evenodd">
        <g id="Mapa-bez-nakladek" transform="translate(-1475.000000, -49.000000)" fill="#2B74BB" fill-rule="nonzero">
            <g id="Group-2" transform="translate(1462.000000, 39.000000)">
                <path d="M22.6769231,10 C24.7779224,10 26.4931735,11.8523653 26.5951988,14.1803956 L26.6,14.4 L26.6,18.799 L26.7619048,18.8 C28.4906437,18.8 29.9029741,20.2726449 29.9952087,22.1268675 L30,22.32 L30,29.36 C30,30.7597105 28.9979365,31.9050008 27.7311078,31.9943845 L27.5714286,32 L15.4285714,32 C14.140959,32 13.087391,30.9106981 13.0051657,29.5335807 L13,29.36 L13,22.32 C13,20.4407591 14.3547058,18.9054728 16.06043,18.8052085 L16.2380952,18.8 L16.4,18.799 L16.4,14.4 C16.4,12.0435851 18.0515845,10.1198132 20.1272758,10.0053848 L20.3230769,10 L22.6769231,10 Z M16.4,20.559 L16.2380952,20.56 C15.3909818,20.56 14.695819,21.2672165 14.6249905,22.1681405 L14.6190476,22.32 L14.6190476,29.36 C14.6190476,29.8086252 14.927869,30.1788417 15.3270265,30.2331436 L15.4285714,30.24 L27.5714286,30.24 C27.9841249,30.24 28.3246921,29.904293 28.374645,29.4703853 L28.3809524,29.36 L28.3809524,22.32 C28.3809524,21.3479788 27.6560801,20.56 26.7619048,20.56 L26.6,20.559 L26.6,20.56 L16.4,20.56 L16.4,20.559 Z M21.5,23.2 C22.4388841,23.2 23.2,23.9879788 23.2,24.96 C23.2,25.6224877 22.8464466,26.199484 22.3240259,26.4997849 C22.340636,26.5697904 22.35,26.643763 22.35,26.72 C22.35,27.2060106 21.969442,27.6 21.5,27.6 C21.030558,27.6 20.65,27.2060106 20.65,26.72 C20.65,26.643763 20.659364,26.5697904 20.6769661,26.4992475 C20.1535534,26.199484 19.8,25.6224877 19.8,24.96 C19.8,23.9879788 20.5611159,23.2 21.5,23.2 Z M22.6769231,11.76 L20.3230769,11.76 C19.0750833,11.76 18.0539328,12.8493019 17.9742376,14.2264193 L17.9692308,14.4 L17.9692308,18.8 L25.0307692,18.8 L25.0307692,14.4 C25.0307692,13.0526225 24.1308063,11.9409959 22.9682975,11.7800274 L22.8152294,11.7644816 L22.6769231,11.76 Z" id="Combined-Shape"></path>
            </g>
        </g>
    </g>
</svg>