<?xml version="1.0" encoding="UTF-8"?>
<svg width="69px" height="89px" viewBox="0 0 69 89" version="1.1" xmlns="http://www.w3.org/2000/svg" xmlns:xlink="http://www.w3.org/1999/xlink">
    <title>Combined Shape</title>
    <g id="Symbols" stroke="none" stroke-width="1" fill="none" fill-rule="evenodd">
        <g id="icon-/-lock" transform="translate(-35.000000, -19.000000)" fill="#3C3C3C" fill-rule="nonzero">
            <path d="M74.2769231,19 C82.9699143,19 90.0358949,26.7871813 90.1971827,36.4617585 L90.2,36.8 L90.2,54.599 L90.8571429,54.6 C98.0163096,54.6 103.83853,60.8019913 103.996699,68.5176508 L104,68.84 L104,97.32 C104,103.120094 99.7326874,107.840303 94.41418,107.996032 L94.1428571,108 L44.8571429,108 C39.5039257,108 35.1473928,103.37646 35.003662,97.6139724 L35,97.32 L35,68.84 C35,61.0831985 40.7241492,54.7749497 47.8453438,54.6035766 L48.1428571,54.6 L48.8,54.599 L48.8,36.8 C48.8,27.0823276 55.7660611,19.1834489 64.4205013,19.0031494 L64.7230769,19 L74.2769231,19 Z M90.8571429,61.72 L48.1428571,61.72 C44.5891678,61.72 41.6943155,64.776294 41.5752391,68.5952248 L41.5714286,68.84 L41.5714286,97.32 C41.5714286,99.2205959 42.9460565,100.773329 44.6768649,100.874732 L44.8571429,100.88 L94.1428571,100.88 C95.8970187,100.88 97.3301187,99.3906205 97.4237096,97.5153272 L97.4285714,97.32 L97.4285714,68.84 C97.4285714,64.9077326 94.4864426,61.72 90.8571429,61.72 Z M69.5,72.4 C73.3107648,72.4 76.4,75.5877326 76.4,79.52 C76.4,81.8693632 75.2972801,83.9529604 73.5967912,85.2497412 C73.8552802,85.7778116 74,86.3720052 74,87 C74,89.209139 72.209139,91 70,91 C67.790861,91 66,89.209139 66,87 C66,86.5709692 66.0675449,86.1577143 66.1925809,85.7702893 C64.0519471,84.5617327 62.6,82.2158328 62.6,79.52 C62.6,75.5877326 65.6892352,72.4 69.5,72.4 Z M74.2769231,26.12 L64.7230769,26.12 C59.5345741,26.12 55.3120884,30.7435405 55.1727801,36.5060276 L55.1692308,36.8 L55.1692308,54.6 L83.8307692,54.6 L83.8307692,36.8 C83.8307692,31.212041 79.9917708,26.6264198 75.1012655,26.159202 L74.8382841,26.13813 L74.2769231,26.12 Z" id="Combined-Shape"></path>
        </g>
    </g>
</svg>