<?xml version="1.0" encoding="UTF-8"?>
<svg width="115px" height="108px" viewBox="0 0 115 108" version="1.1" xmlns="http://www.w3.org/2000/svg" xmlns:xlink="http://www.w3.org/1999/xlink">
    <title>Combined Shape</title>
    <g id="Symbols" stroke="none" stroke-width="1" fill="none" fill-rule="evenodd">
        <g id="icon-/-institution" transform="translate(-12.000000, -4.000000)" fill="#3C3C3C" fill-rule="nonzero">
            <path d="M80.9937738,4.88708541 L81,5 L81,10.9090909 C81,11.3297196 80.7375835,11.7008689 80.3509554,11.8455291 L80.2425356,11.8792334 L76.2425356,12.8792334 C76.12124,12.9095573 75.995702,12.9167776 75.8724163,12.900919 L75.750122,12.8773682 L72,11.909 L72,17.7325074 L83.999,29.9995074 L113.975551,30 L127,39.4723262 L127,112 L12,112 L12,39.5581255 L23.9476568,30 L57.222,29.9995074 L70,17.8065074 L70,5 C70,4.40839398 70.5074139,3.95543874 71.0807094,4.00310407 L71.1961161,4.01941932 L75.974,4.975 L79.7574644,4.0298575 C80.3514848,3.88135239 80.9280035,4.29546681 80.9937738,4.88708541 Z M102,49.9995074 L102,106.999507 L122,107 L122,50 L102,49.9995074 Z M38,49.9995074 L18,50 L18,107 L38,106.999507 L38,49.9995074 Z M70.4482759,22.7839649 L42,50.1092661 L42,106.783965 L97,106.783965 L97,50.1092661 L70.4482759,22.7839649 Z M116,59 L116,98 L112,98 L112,59 L116,59 Z M28,59 L28,98 L24,98 L24,59 L28,59 Z M90,86 L90,90 L51,90 L51,86 L90,86 Z M90,75 L90,79 L51,79 L51,75 L90,75 Z M90,64 L90,68 L51,68 L51,64 L90,64 Z M88.89,34.9995074 L100.628,46.9995074 L122,47 L122,42.5789474 L111.504587,35 L88.89,34.9995074 Z M51.982,34.9995074 L27.5412844,35 L18,42.5789474 L18,47 L39.406,46.9995074 L51.982,34.9995074 Z M72,6.219 L72,9.917 L72.0337504,9.91298927 C72.1080537,9.90617983 72.1839682,9.90767278 72.2602753,9.91818684 L72.374878,9.94081359 L76.003,10.877 L79,10.127 L79,6.281 L76.2425356,6.9701425 C76.1348045,6.99707527 76.0235961,7.00581389 75.9134744,6.99624975 L75.8038839,6.98058068 L72,6.219 Z" id="Combined-Shape" transform="translate(69.500000, 57.999754) scale(-1, 1) translate(-69.500000, -57.999754) "></path>
        </g>
    </g>
</svg>