<?xml version="1.0" encoding="UTF-8"?>
<svg width="80px" height="73px" viewBox="0 0 80 73" version="1.1" xmlns="http://www.w3.org/2000/svg" xmlns:xlink="http://www.w3.org/1999/xlink">
    <title>Mask</title>
    <defs>
        <path d="M75.7117904,33.0502786 C78.1360741,33.395797 80,35.4802269 80,38 C80,39.0818511 79.6491106,40.1345191 79,41 L56.5,71 C55.5557281,72.2590292 54.0737865,73 52.5,73 L5,73 C2.23857625,73 0,70.7614237 0,68 C0,66.9181489 0.350889359,65.8654809 1,65 L6.28820956,57.9497214 C6.44320492,57.9718119 6.60049082,57.9867945 6.75972657,57.9943283 L7,58 L13.749,57.9992786 L6.999,67 L52,67 L72.999,39 L71.25,38.9992786 L75.7117904,33.0502786 Z M76.3595663,16.1870621 C78.4602886,16.7792889 80,18.709835 80,21 C80,22.0818511 79.6491106,23.1345191 79,24 L56.5,54 C55.5557281,55.2590292 54.0737865,56 52.5,56 L5,56 C2.23857625,56 0,53.7614237 0,51 C0,49.9181489 0.350889359,48.8654809 1,48 L5.64143365,41.8132197 C5.98701726,41.9105671 6.34777649,41.971698 6.71935529,41.9922565 L7,42 L12.999,41.9990621 L6.999,50 L52,50 L72.999,22 L72,21.9990621 L76.3595663,16.1870621 Z M75,0 C77.7614237,0 80,2.23857625 80,5 C80,6.08185107 79.6491106,7.13451915 79,8 L56.5,38 C55.5557281,39.2590292 54.0737865,40 52.5,40 L5,40 C2.23857625,40 0,37.7614237 0,35 C0,33.9181489 0.350889359,32.8654809 1,32 L23.5,2 C24.4442719,0.740970787 25.9262135,0 27.5,0 L75,0 Z M72.999,6 L28,6 L7,34 L52,34 L72.999,6 Z" id="path-1"></path>
    </defs>
    <g id="Symbols" stroke="none" stroke-width="1" fill="none" fill-rule="evenodd">
        <g id="icon-/-layers" transform="translate(-25.000000, -29.000000)">
            <g id="color-/-black" transform="translate(25.000000, 29.000000)">
                <mask id="mask-2" fill="white">
                    <use xlink:href="#path-1"></use>
                </mask>
                <use id="Mask" fill="#000000" fill-rule="nonzero" xlink:href="#path-1"></use>
            </g>
        </g>
    </g>
</svg>