<?xml version="1.0" encoding="UTF-8"?>
<svg width="125px" height="125px" viewBox="0 0 125 125" version="1.1" xmlns="http://www.w3.org/2000/svg" xmlns:xlink="http://www.w3.org/1999/xlink">
    <title>icon / download 2</title>
    <g id="icon-/-download-2" stroke="none" stroke-width="1" fill="none" fill-rule="evenodd">
        <path d="M21.5,70 C23.9852814,70 26,72.0147186 26,74.5 L25.999,91 L98,91 L98,74.5 C98,72.0147186 100.014719,70 102.5,70 L104.5,70 C106.985281,70 109,72.0147186 109,74.5 L109,94.5 C109,94.6689026 108.990695,94.8356318 108.972568,94.999703 C108.990657,95.1636876 109,95.3307527 109,95.5 L109,97.5 C109,99.9852814 106.985281,102 104.5,102 L19.5,102 C17.0147186,102 15,99.9852814 15,97.5 L15,95.5 C15,95.3307527 15.0093434,95.1636876 15.0275426,94.9992926 C15.0093054,94.8356318 15,94.6689026 15,94.5 L15,74.5 C15,72.0147186 17.0147186,70 19.5,70 L21.5,70 Z M62.0000359,24 C64.5562991,24 66.6458456,25.9835648 66.7918384,28.4847116 L66.7999866,28.7646723 L66.799,64.077 L78.2415894,55.1887269 C80.3292175,53.5669389 83.3460279,53.9321386 84.9798238,56.0044232 C86.5507815,57.9970046 86.2710553,60.8423531 84.3913201,62.500042 L84.1580879,62.6931334 L65.7582769,76.9871502 C64.7670862,77.7571634 63.5664316,78.0792536 62.4037914,77.9833793 C61.3654228,78.0701148 60.2951801,77.8241479 59.3685766,77.2199809 L59.1200655,77.0466848 L39.9202628,62.7526679 C37.7995111,61.1737944 37.3697089,58.1872914 38.9602726,56.0821267 C40.4896608,54.0579299 43.3301177,53.5856205 45.4316924,54.9558962 L45.6802036,55.1291923 L57.2,63.705 L57.2000852,28.7646723 C57.2000852,26.1332164 59.3490963,24 62.0000359,24 Z" id="Combined-Shape" fill="#000000" fill-rule="nonzero"></path>
    </g>
</svg>