<?xml version="1.0" encoding="UTF-8"?>
<svg width="16px" height="15px" viewBox="0 0 16 15" version="1.1" xmlns="http://www.w3.org/2000/svg" xmlns:xlink="http://www.w3.org/1999/xlink">
    <title>icon / star / border</title>
    <g id="icon-/-star-/-border" stroke="none" stroke-width="1" fill="none" fill-rule="evenodd">
        <path d="M14.872497,5.02525492 L10.5918237,4.40117318 L8.67855901,0.521904544 C8.33575354,-0.1695663 7.3424967,-0.178356184 6.99676127,0.521904544 L5.08349661,4.40117318 L0.802823284,5.02525492 C0.0351734481,5.13659344 -0.272472479,6.08297091 0.284220151,6.62501374 L3.38118915,9.64287378 L2.64869884,13.9059673 C2.51685059,14.6765471 3.32844984,15.2537495 4.00820084,14.8933643 L7.83766014,12.8804809 L11.6671194,14.8933643 C12.3468704,15.2508195 13.1584697,14.6765471 13.0266214,13.9059673 L12.2941311,9.64287378 L15.3911001,6.62501374 C15.9477928,6.08297091 15.6401468,5.13659344 14.872497,5.02525492 L14.872497,5.02525492 Z M10.7852011,9.1506403 L11.4796019,13.2057066 L7.83766014,11.2924419 L4.19571836,13.2057066 L4.89011917,9.1506403 L1.94257819,6.27927831 L6.01522427,5.68742615 L7.83766014,1.99567503 L9.66009601,5.68742615 L13.7327421,6.27927831 L10.7852011,9.1506403 Z" id="Shape" fill="#E3E3E3" fill-rule="nonzero"></path>
    </g>
</svg>