<?xml version="1.0" encoding="UTF-8"?>
<svg width="654px" height="601px" viewBox="0 0 654 601" version="1.1" xmlns="http://www.w3.org/2000/svg" xmlns:xlink="http://www.w3.org/1999/xlink">
    <title>icon / institution</title>
    <g id="Ustawienia" stroke="none" stroke-width="1" fill="none" fill-rule="evenodd">
        <g id="Ustawienia--/-Ludzie" transform="translate(-883.000000, -330.000000)" fill="#3C3C3C" fill-rule="nonzero">
            <g id="icon-/-people" style="mix-blend-mode: overlay;" transform="translate(800.000000, 259.000000)">
                <path d="M472.006946,314.951012 C473.156694,315.453488 474.298587,315.967169 475.432488,316.491885 C470.945168,324.670281 467.29868,333.518675 464.630283,342.876089 C463.083909,342.131284 461.514752,341.411927 459.927142,340.718091 C457.805329,339.790792 455.859252,339.761823 452.691478,340.847168 L449.6519,342.045841 C449.006466,342.326411 448.358772,342.628166 447.507806,343.049824 L440.628443,346.614334 C427.292579,353.615206 418.869937,356.64 407.35369,356.64 C398.114125,356.64 389.765397,354.656727 376.932296,350.142442 L369.916455,347.601972 C363.927915,345.398565 359.103135,343.743187 355.158197,342.574567 C351.973049,331.498372 347.41474,321.140146 341.716161,311.764577 C350.721634,311.367608 360.86802,314.138656 376.557188,319.791098 L383.292,322.251887 C395.225837,326.603325 401.862303,328.3562 407.35369,328.3562 C412.056457,328.3562 416.380069,326.972365 423.976921,323.136772 L434.279738,317.806148 C436.334439,316.785224 437.615883,316.23221 439.673376,315.39939 C450.79496,310.89766 461.228264,310.240388 472.006946,314.951012 Z M400.030189,71.328 C453.490266,71.328 495.235703,122.626349 495.235703,184.463202 C495.235703,196.281931 493.710752,207.715691 490.870521,218.479903 C496.312441,242.571958 504.757492,245.87195 521.535991,233.702928 L522.892689,232.699117 L534.782609,248.637005 C511.41987,266.252633 492.394749,264.132543 480.502335,245.066236 C463.774725,276.505111 434.31092,297.598404 400.030189,297.598404 C364.479415,297.598404 334.109096,274.913218 317.750546,241.529306 C306.176144,263.592174 286.582236,267.216963 262.189902,249.18991 L261.449275,248.637005 L273.339195,232.699117 L274.695893,233.702928 C293.440613,247.298001 301.784302,241.586093 307.162112,209.146913 L307.127859,209.339083 C305.61866,201.318838 304.824675,192.99124 304.824675,184.463202 C304.824675,122.626349 346.570112,71.328 400.030189,71.328 Z M463.490041,161.517443 L463.439989,161.519729 C462.18565,161.631791 454.611631,165.889658 421.746456,181.755568 C400.408951,192.056409 371.270941,192.917215 334.123654,185.162113 C334.417138,232.337036 364.682155,269.314603 400.030189,269.314603 C435.552587,269.314603 465.941699,231.971331 465.941699,184.463202 C465.941699,177.511179 465.290963,170.776821 464.068631,164.345291 L463.427131,164.964601 C461.972085,163.559733 464.25469,161.521089 463.490041,161.517443 Z M400.030189,99.6118005 C371.73629,99.6118005 346.699082,123.303347 337.680988,156.952482 C370.156101,164.042023 393.884425,163.583922 408.645779,156.457768 L412.93172,154.258023 C421.578287,149.740163 439.225659,140.352452 444.542988,138.298868 C447.725007,137.069953 450.824292,136.168132 453.84108,135.613969 C441.751227,113.714699 421.860015,99.6118005 400.030189,99.6118005 Z" id="Combined-Shape"></path>
                <path d="M639.828227,516.925214 C698.488421,542.411469 736.811594,596.739693 736.811594,657.53717 C736.811594,665.343621 730.218585,671.672 722.085696,671.672 C713.952807,671.672 707.359798,665.343621 707.359798,657.53717 C707.359798,608.096837 676.032088,563.685618 627.683355,542.679411 C625.550112,541.752575 623.593553,541.723621 620.408716,542.808423 L617.352766,544.006497 C616.703855,544.286926 616.052672,544.588531 615.197122,545.009978 L608.280704,548.572705 C594.873007,555.570078 586.404996,558.59336 574.826717,558.59336 C565.537383,558.59336 557.143685,556.611078 544.241459,552.09905 L537.187827,549.55985 C518.108014,542.580778 510.778178,541.102516 506.114052,543.176124 C458.377605,564.399114 427.567738,608.504793 427.567738,657.53717 C427.567738,665.343621 420.974729,671.672 412.84184,671.672 C404.708951,671.672 398.115942,665.343621 398.115942,657.53717 C398.115942,597.239324 435.811095,543.277057 493.735932,517.524444 C508.119508,511.129698 519.154066,512.912471 543.86433,521.76288 L550.635419,524.222439 C562.633538,528.571702 569.305751,530.323699 574.826717,530.323699 C579.554815,530.323699 583.901716,528.940556 591.539488,525.106881 L601.897802,519.778922 C603.96357,518.758509 605.251917,518.205771 607.320493,517.373368 C618.501983,512.873888 628.991485,512.216945 639.828227,516.925214 Z M567.463768,273.424 C621.211806,273.424 663.182105,324.696703 663.182105,386.50264 C663.182105,448.308578 621.211806,499.581281 567.463768,499.581281 C513.71573,499.581281 471.745432,448.308578 471.745432,386.50264 C471.745432,324.696703 513.71573,273.424 567.463768,273.424 Z M566.686441,370.875557 L562.377413,373.074202 C553.684272,377.589804 535.941843,386.972821 530.595873,389.025378 C519.88084,393.139359 510.098925,393.585833 501.241179,389.592573 C502.531077,435.595793 532.528178,471.311621 567.463768,471.311621 C603.177507,471.311621 633.730309,433.987018 633.730309,386.50264 C633.730309,380.558919 633.251605,374.774381 632.343997,369.202303 C602.598497,363.37237 580.651281,364.173397 566.686441,370.875557 Z M567.463768,301.69366 C535.648691,301.69366 507.929274,331.314033 502.256472,371.350413 L511.61001,362.372976 C515.163329,365.783673 496.545882,372.931745 553.515197,345.590404 C571.100627,337.150611 593.95603,335.051107 622.197026,338.838152 C610.111889,316.289341 589.796914,301.69366 567.463768,301.69366 Z" id="Combined-Shape"></path>
                <path d="M324.900691,516.925214 C383.560885,542.411469 421.884058,596.739693 421.884058,657.53717 C421.884058,665.343621 415.291049,671.672 407.15816,671.672 C399.025271,671.672 392.432262,665.343621 392.432262,657.53717 C392.432262,608.096837 361.104552,563.685618 312.755819,542.679411 C310.622576,541.752575 308.666017,541.723621 305.48118,542.808423 L302.42523,544.006497 C301.776319,544.286926 301.125135,544.588531 300.269586,545.009978 L293.353167,548.572705 C279.94547,555.570078 271.47746,558.59336 259.899181,558.59336 C250.609847,558.59336 242.216149,556.611078 229.313922,552.09905 L222.260291,549.55985 C203.180478,542.580778 195.850641,541.102516 191.186516,543.176124 C143.450069,564.399114 112.640202,608.504793 112.640202,657.53717 C112.640202,665.343621 106.047193,671.672 97.9143037,671.672 C89.7814149,671.672 83.1884058,665.343621 83.1884058,657.53717 C83.1884058,597.239324 120.883559,543.277057 178.808396,517.524444 C193.191971,511.129698 204.226529,512.912471 228.936794,521.76288 L235.707883,524.222439 C247.706001,528.571702 254.378215,530.323699 259.899181,530.323699 C264.627279,530.323699 268.97418,528.940556 276.611952,525.106881 L286.970266,519.778922 C289.036034,518.758509 290.324381,518.205771 292.392956,517.373368 C303.574447,512.873888 314.063949,512.216945 324.900691,516.925214 Z M252.536232,273.424 C306.28427,273.424 348.254568,324.696703 348.254568,386.50264 C348.254568,448.308578 306.28427,499.581281 252.536232,499.581281 C198.788194,499.581281 156.817895,448.308578 156.817895,386.50264 C156.817895,324.696703 198.788194,273.424 252.536232,273.424 Z M304.123651,333.435766 L303.353889,333.813509 C277.204255,346.598749 257.161316,353.0736 242.574595,353.0736 C230.915526,353.0736 215.770644,348.937013 196.807786,340.747821 C190.167663,353.877376 186.269691,369.541908 186.269691,386.50264 C186.269691,433.987018 216.822493,471.311621 252.536232,471.311621 C288.249971,471.311621 318.802773,433.987018 318.802773,386.50264 C318.802773,366.268139 313.254796,347.878514 304.123651,333.435766 Z M252.536232,301.69366 C235.64688,301.69366 219.911736,310.041047 208.016314,323.862791 C222.994057,330.083893 234.598928,333.1612 242.574595,333.1612 C252.868317,333.1612 269.2074,328.035164 291.039557,317.643456 C280.078719,307.575996 266.714156,301.69366 252.536232,301.69366 Z" id="Combined-Shape"></path>
            </g>
        </g>
    </g>
</svg>