<?xml version="1.0" encoding="UTF-8"?>
<svg width="125px" height="125px" viewBox="0 0 125 125" version="1.1" xmlns="http://www.w3.org/2000/svg" xmlns:xlink="http://www.w3.org/1999/xlink">
    <title>icon / download</title>
    <g id="icon-/-download" stroke="none" stroke-width="1" fill="none" fill-rule="evenodd">
        <path d="M66.9072067,64.9435363 C68.9879074,64.9435363 70.6887185,66.5618509 70.8075511,68.6024408 L70.8141834,68.83085 L70.814093,97.6405363 L80.1272116,90.3892248 C81.8264613,89.06607 84.2820298,89.3640225 85.6118774,91.0547202 C86.890577,92.6803911 86.6628905,95.001802 85.1328578,96.354247 L84.9430157,96.5117828 L69.9662715,108.173724 C69.1587721,108.8025 68.1804778,109.06519 67.2333572,108.986303 C66.3894859,109.057004 65.5190126,108.856267 64.7652992,108.363682 L64.5630206,108.222296 L48.9351137,96.5603548 C47.2089027,95.2722123 46.8590601,92.8356388 48.1537183,91.1181155 C49.398582,89.4666509 51.7106055,89.0813117 53.4212072,90.1992671 L53.6234857,90.3406528 L63.000093,97.3385363 L63.0002299,68.83085 C63.0002299,66.6839459 64.749443,64.9435363 66.9072067,64.9435363 Z M86.4418605,17 C104.423224,17 119,31.5034137 119,49.3942813 C119,66.850968 105.122146,81.0826213 87.7448164,81.7630961 L87.744186,81.7885625 L85.139,81.788 L85.139,72.716 L86.9224186,72.716868 L87.386306,72.699714 C99.7816485,72.2143277 109.654462,62.1620437 109.879785,49.8255395 L109.883721,49.3942813 C109.883721,36.5128567 99.3884425,26.0703988 86.4418605,26.0703988 C77.7506542,26.0703988 69.913187,30.8123184 65.839196,38.2558773 L65.6167535,38.6721749 L62.3392189,44.9570408 L55.4159223,43.3190141 C54.2872014,43.0519628 53.1212325,42.915425 51.9302326,42.915425 C46.5249679,42.915425 41.6353093,45.7827202 38.9742947,50.3354898 L38.768876,50.6983991 L35.1689919,57.2689531 L28.0015359,55.0007824 C27.1190024,54.7215011 26.1910892,54.5773663 25.2325581,54.5773663 C20.1977762,54.5773663 16.1162791,58.6383221 16.1162791,63.647765 C16.1162791,67.8214723 18.9764197,71.420925 22.9539886,72.4348408 L23.2702969,72.5094785 L24.2297674,72.716868 L48.674,72.716 L48.674,81.788 L21.3255814,81.7885625 L21.3260084,81.3711843 C13.1336925,79.5918087 7,72.3324822 7,63.647765 C7,53.6288792 15.1629943,45.5069675 25.2325581,45.5069675 C27.1611715,45.5069675 29.0198454,45.8049065 30.7646229,46.3570484 C34.8487097,38.9027214 42.7958395,33.8450263 51.9302326,33.8450263 C53.8562661,33.8450263 55.729514,34.0698908 57.5249038,34.4946735 C62.9452947,24.1007542 73.8601481,17 86.4418605,17 Z" id="Combined-Shape" fill="#000000" fill-rule="nonzero"></path>
        <path d="" id="Path-20" stroke="#000000" stroke-width="2"></path>
    </g>
</svg>