<?xml version="1.0" encoding="UTF-8"?>
<svg width="10px" height="12px" viewBox="0 0 10 12" version="1.1" xmlns="http://www.w3.org/2000/svg" xmlns:xlink="http://www.w3.org/1999/xlink">
    <!-- Generator: Sketch 61 (89581) - https://sketch.com -->
    <title>%</title>
    <desc>Created with Sketch.</desc>
    <g id="Main-UI" stroke="none" stroke-width="1" fill="none" fill-rule="evenodd">
        <g id="Sentinel---szukaj-danych" transform="translate(-130.000000, -290.000000)" fill="#3C3C3C" fill-rule="nonzero">
            <g id="zakres-dat-skanowania-copy" transform="translate(15.000000, 255.000000)">
                <g id="procent" transform="translate(0.000000, 21.000000)">
                    <path d="M117.816406,19.53125 C118.458984,19.53125 118.978516,19.344401 119.375,18.9707031 C119.771484,18.5970052 119.969727,18.1025391 119.969727,17.4873047 L119.969727,17.4873047 L119.969727,16.9951172 C119.969727,16.3525391 119.771484,15.8432617 119.375,15.4672852 C118.978516,15.0913086 118.454427,14.9033203 117.802734,14.9033203 C117.160156,14.9033203 116.640625,15.0935872 116.244141,15.4741211 C115.847656,15.8546549 115.649414,16.3502604 115.649414,16.9609375 L115.649414,16.9609375 L115.649414,17.4462891 C115.649414,18.0843099 115.848796,18.5913086 116.247559,18.9672852 C116.646322,19.3432617 117.169271,19.53125 117.816406,19.53125 Z M118.206055,24.2548828 L123.066406,16.4755859 L122.102539,15.9560547 L117.242188,23.7353516 L118.206055,24.2548828 Z M117.816406,18.3964844 C117.561198,18.3964844 117.35498,18.3133138 117.197754,18.1469727 C117.040527,17.9806315 116.961914,17.7607422 116.961914,17.4873047 L116.961914,17.4873047 L116.961914,16.9882812 C116.961914,16.6920573 117.039388,16.4607747 117.194336,16.2944336 C117.349284,16.1280924 117.552083,16.0449219 117.802734,16.0449219 C118.067057,16.0449219 118.274414,16.1292318 118.424805,16.2978516 C118.575195,16.4664714 118.650391,16.6875 118.650391,16.9609375 L118.650391,16.9609375 L118.650391,17.4667969 C118.650391,17.749349 118.575195,17.9749349 118.424805,18.1435547 C118.274414,18.3121745 118.071615,18.3964844 117.816406,18.3964844 Z M122.581055,25.1367188 C123.232747,25.1367188 123.754557,24.9487305 124.146484,24.5727539 C124.538411,24.1967773 124.734375,23.7034505 124.734375,23.0927734 L124.734375,23.0927734 L124.734375,22.6005859 C124.734375,21.9488932 124.534993,21.4373372 124.13623,21.065918 C123.737467,20.6944987 123.214518,20.5087891 122.567383,20.5087891 C121.929362,20.5087891 121.409831,20.6967773 121.008789,21.0727539 C120.607747,21.4487305 120.407227,21.9443359 120.407227,22.5595703 L120.407227,22.5595703 L120.407227,23.0654297 C120.407227,23.6897786 120.605469,24.1910807 121.001953,24.5693359 C121.398438,24.9475911 121.924805,25.1367188 122.581055,25.1367188 Z M122.581055,24.0019531 C122.334961,24.0019531 122.129883,23.9130859 121.96582,23.7353516 C121.801758,23.5576172 121.719727,23.3434245 121.719727,23.0927734 L121.719727,23.0927734 L121.719727,22.5800781 C121.719727,22.2929688 121.797201,22.0662435 121.952148,21.8999023 C122.107096,21.7335612 122.312174,21.6503906 122.567383,21.6503906 C122.822591,21.6503906 123.027669,21.7335612 123.182617,21.8999023 C123.337565,22.0662435 123.415039,22.2861328 123.415039,22.5595703 L123.415039,22.5595703 L123.415039,23.0791016 C123.415039,23.6943359 123.137044,24.0019531 122.581055,24.0019531 Z" id="%"></path>
                </g>
            </g>
        </g>
    </g>
</svg>