<?xml version="1.0" encoding="UTF-8"?>
<svg width="12px" height="12px" viewBox="0 0 12 12" version="1.1" xmlns="http://www.w3.org/2000/svg" xmlns:xlink="http://www.w3.org/1999/xlink">
    <!-- Generator: Sketch 64 (93537) - https://sketch.com -->
    <title>Combined Shape</title>
    <desc>Created with Sketch.</desc>
    <g id="Symbols" stroke="none" stroke-width="1" fill="none" fill-rule="evenodd">
        <g id="search-/-place" transform="translate(-231.000000, -14.000000)" fill="#B4B4B4">
            <path d="M231.2788,14.2787998 C231.650533,13.9070667 232.253231,13.9070667 232.624965,14.2787998 L232.624965,14.2787998 L237,18.654 L241.375035,14.2787998 C241.746769,13.9070667 242.349467,13.9070667 242.7212,14.2787998 C243.092933,14.650533 243.092933,15.2532315 242.7212,15.6249646 L238.346,20 L242.7212,24.3750354 C243.064338,24.7181737 243.090734,25.2581108 242.800386,25.6315259 L242.7212,25.7212002 C242.349467,26.0929333 241.746769,26.0929333 241.375035,25.7212002 L241.375035,25.7212002 L237,21.346 L232.624965,25.7212002 C232.253231,26.0929333 231.650533,26.0929333 231.2788,25.7212002 C230.907067,25.349467 230.907067,24.7467685 231.2788,24.3750354 L235.654,20 L231.2788,15.6249646 C230.935662,15.2818263 230.909266,14.7418892 231.199614,14.3684741 Z" id="Combined-Shape"></path>
        </g>
    </g>
</svg>