<?xml version="1.0" encoding="UTF-8"?>
<svg width="52px" height="47px" viewBox="0 0 52 47" version="1.1" xmlns="http://www.w3.org/2000/svg" xmlns:xlink="http://www.w3.org/1999/xlink">
    <title>Combined Shape</title>
    <g id="Main-UI" stroke="none" stroke-width="1" fill="none" fill-rule="evenodd">
        <g id="Mapa" transform="translate(-467.000000, -938.000000)" fill="#4F4F4F" fill-rule="nonzero">
            <g id="policy" transform="translate(-28.000000, 919.000000)">
                <g id="Group-2" transform="translate(520.864866, 40.497738) rotate(21.000000) translate(-520.864866, -40.497738) translate(495.864866, 14.497738)">
                    <path d="M23.6562013,5.27082813 L23.7156972,5.27434899 L23.7495249,5.2769216 C23.7535912,5.27733456 23.7576518,5.27776685 23.7617066,5.27821838 L23.7773235,5.2801891 C24.0031805,5.30848406 24.2226365,5.33763218 24.4357648,5.36769904 L25.0562402,5.46072147 C25.1565134,5.47670645 25.2552231,5.49293751 25.3523784,5.50942286 L25.9167308,5.61145199 C27.5542707,5.92708724 28.6941364,6.33042449 29.3898436,6.86928442 C30.9143615,8.05009946 30.4805058,9.63539793 28.8558395,10.841024 L28.7094158,10.9463975 C28.6032941,11.020481 28.5022987,11.0941077 28.4063006,11.1673233 L28.1608837,11.3618468 L27.9629296,11.5279185 C27.9313041,11.5552292 27.9003602,11.582379 27.8700954,11.6094024 L27.6966338,11.7703031 C26.8698566,12.5699891 26.649466,13.3181525 26.9643737,14.9478556 L27.0344715,15.2858265 L27.1187176,15.648964 C27.1339306,15.7116762 27.1497278,15.7755062 27.1661067,15.8404885 L27.3291489,16.4573734 L27.5231715,17.1420798 L27.9142297,18.4491766 C28.1632806,19.2649162 29.1758553,19.6425996 31.414513,19.7186123 L31.9131605,19.730333 L32.1768753,19.7328235 L34.104067,19.7309571 L34.7713487,19.7419242 L35.1524991,19.7565042 L35.4935209,19.7779897 L35.8037006,19.8073156 L36.0923251,19.8454167 C36.1859726,19.8596835 36.2775753,19.8755687 36.368681,19.8932281 L36.6420551,19.9516844 C38.0351823,20.2763864 38.9540709,21.0957113 39.025353,22.4381558 L39.0298217,22.608688 C39.0298217,24.1259372 41.142767,25.5934919 45.7609713,26.7267189 C46.4068674,26.8852106 46.8130939,27.5154337 46.7030485,28.1608976 C46.7147125,28.2284631 46.7206972,28.2987408 46.7206972,28.3704164 C46.7206972,41.1281941 36.378475,51.4704164 23.6206972,51.4704164 C10.8629195,51.4704164 0.520697243,41.1281941 0.520697243,28.3704164 C0.520697243,15.6126386 10.8629195,5.27041636 23.6206972,5.27041636 L23.6562013,5.27082813 L23.6562013,5.27082813 Z M23.5496972,7.79125502 L23.6206972,7.79041636 C12.2546771,7.79041636 3.04069724,17.0043962 3.04069724,28.3704164 C3.04069724,39.7364365 12.2546771,48.9504164 23.6206972,48.9504164 C34.8020212,48.9504164 43.9006774,40.0334551 44.1934285,28.9227697 L44.50945,29.0081068 C39.3988177,27.6535504 36.6244081,25.6596933 36.5132954,22.7892352 L36.5103079,22.5902742 L36.5138572,22.5727364 L36.4975018,22.5598337 C36.44083,22.5218549 36.33393,22.4757454 36.1730645,22.4318753 L36.0700395,22.4059049 L35.866725,22.3637582 C35.8317712,22.3573934 35.796171,22.3513497 35.7597556,22.3456143 L35.5301328,22.3147958 C35.4897824,22.3102411 35.4482796,22.3059687 35.4054558,22.3019655 L35.131311,22.2810736 L34.817366,22.2660207 L34.2541154,22.2530269 L33.8052543,22.2498464 L32.1638722,22.25279 C31.9756984,22.251819 31.7917972,22.2494125 31.6121137,22.2454314 L31.085661,22.2286252 L30.5841843,22.2015369 C27.7311078,22.0119098 26.1359965,21.254872 25.5040563,19.185019 L24.9772044,17.43721 L24.8091052,16.8555074 L24.6714031,16.3541231 L24.5950462,16.0576176 L24.5300353,15.7865032 L24.4755046,15.5366577 L24.4305886,15.3039584 L24.3944217,15.0842833 L24.3661383,14.8735097 L24.3546825,14.7701728 L24.3366015,14.5650222 L24.3242402,14.3584674 L24.314529,14.0369843 L24.313214,13.9246552 C24.2987149,12.1019998 25.0428749,10.628009 26.6919411,9.30894493 C26.8121057,9.21282702 26.9372765,9.11731906 27.0675882,9.02228998 L27.2669285,8.88008915 C27.3398829,8.82915982 27.4049038,8.7811412 27.4622808,8.73679509 L27.5350972,8.67829636 C27.1374755,8.4907603 26.502147,8.30244849 25.6456268,8.12832068 L25.1565969,8.03483847 C24.901213,7.98889062 24.6296002,7.94420009 24.3420935,7.90107035 L23.7459876,7.81698183 L23.5496972,7.79125502 Z M23.3120084,39.2860524 C24.611326,38.7872911 26.068957,39.4362703 26.5677183,40.7355879 C27.0664796,42.0349055 26.4175005,43.4925365 25.1181828,43.9912978 C23.8188652,44.4900591 22.3612342,43.84108 21.8624729,42.5417624 C21.3637116,41.2424447 22.0126908,39.7848138 23.3120084,39.2860524 Z M32.9679182,29.2811634 C34.7003417,28.6161483 36.6438497,29.4814538 37.3088648,31.2138773 C37.9738798,32.9463008 37.1085743,34.8898088 35.3761508,35.5548238 C33.6437273,36.2198389 31.7002194,35.3545334 31.0352043,33.6221099 C30.3701892,31.8896864 31.2354947,29.9461785 32.9679182,29.2811634 Z M10.7445423,28.8143002 C11.8273069,28.3986658 13.0419994,28.9394817 13.4576338,30.0222464 C13.8732683,31.1050111 13.3324523,32.3197036 12.2496876,32.735338 C11.166923,33.1509724 9.95223048,32.6101565 9.53659606,31.5273918 C9.12096164,30.4446271 9.66177757,29.2299346 10.7445423,28.8143002 Z M22.71761,26.0177937 C23.5838218,25.6852861 24.5555757,26.1179389 24.8880833,26.9841506 C25.2205908,27.8503624 24.7879381,28.8221164 23.9217263,29.1546239 C23.0555146,29.4871315 22.0837606,29.0544787 21.751253,28.188267 C21.4187455,27.3220552 21.8513983,26.3503012 22.71761,26.0177937 Z M45.6417786,15.4185062 C46.9410962,14.9197449 48.3987272,15.5687241 48.8974885,16.8680417 C49.3962498,18.1673593 48.7472707,19.6249903 47.4479531,20.1237516 C46.1486354,20.6225129 44.6910045,19.9735338 44.1922432,18.6742161 C43.6934819,17.3748985 44.342461,15.9172675 45.6417786,15.4185062 Z M16.6337587,14.8567385 C17.4999705,14.5242309 18.4717245,14.9568837 18.804232,15.8230954 C19.1367395,16.6893072 18.7040868,17.6610612 17.837875,17.9935687 C16.9716633,18.3260762 15.9999093,17.8934235 15.6674018,17.0272117 C15.3348942,16.161 15.767547,15.189246 16.6337587,14.8567385 Z M38.5283006,10.9510202 C39.3945124,10.6185127 40.3662664,11.0511655 40.6987739,11.9173772 C41.0312814,12.783589 40.5986287,13.7553429 39.7324169,14.0878505 C38.8662052,14.420358 37.8944512,13.9877053 37.5619437,13.1214935 C37.2294361,12.2552818 37.6620889,11.2835278 38.5283006,10.9510202 Z M35.3991302,0.455292906 C36.2653419,0.122785368 37.2370959,0.555438117 37.5696035,1.42164987 C37.902111,2.28786162 37.4694582,3.2596156 36.6032465,3.59212314 C35.7370347,3.92463068 34.7652808,3.49197793 34.4327732,2.62576618 C34.1002657,1.75955443 34.5329184,0.787800444 35.3991302,0.455292906 Z" id="Combined-Shape"></path>
                </g>
            </g>
        </g>
    </g>
</svg>