<?xml version="1.0" encoding="UTF-8"?>
<svg width="69px" height="80px" viewBox="0 0 69 80" version="1.1" xmlns="http://www.w3.org/2000/svg" xmlns:xlink="http://www.w3.org/1999/xlink">
    <title>Combined Shape</title>
    <g id="Symbols" stroke="none" stroke-width="1" fill="none" fill-rule="evenodd">
        <g id="icon-/-view" transform="translate(-37.000000, -24.000000)" fill="#3C3C3C" fill-rule="nonzero">
            <path d="M80.0303437,25.5543494 L80.2426407,25.7573593 L104.242641,49.7573593 C105.615787,51.1305055 106.136785,52.8577544 105.98727,54.5006007 L106,54.5 L106,97 C106,100.865993 102.865993,104 99,104 L44,104 C40.1340068,104 37,100.865993 37,97 L37,31 C37,27.1340068 40.1340068,24 44,24 L75.6635151,24.0000479 C77.1728491,23.9041275 78.7407532,24.3757141 80.0303437,25.5543494 Z M69.999,31.9999715 L45,32 L45,96 L98,96 L98,59.9999715 L76,60 C72.7616031,60 70.1224282,57.4344251 70.0041385,54.2249383 L70,54 L69.999,31.9999715 Z M85,80 C86.6568542,80 88,81.3431458 88,83 L88,85 C88,86.6568542 86.6568542,88 85,88 L55,88 C53.3431458,88 52,86.6568542 52,85 L52,83 C52,81.3431458 53.3431458,80 55,80 L85,80 Z M85,67 C86.6568542,67 88,68.3431458 88,70 L88,72 C88,73.6568542 86.6568542,75 85,75 L55,75 C53.3431458,75 52,73.6568542 52,72 L52,70 C52,68.3431458 53.3431458,67 55,67 L85,67 Z M76,30.0009715 L76,32 L75.999,31.9999715 L76,54 L100,54 L76,30.0009715 Z" id="Combined-Shape"></path>
        </g>
    </g>
</svg>