<?xml version="1.0" encoding="UTF-8"?>
<svg width="138px" height="125px" viewBox="0 0 138 125" version="1.1" xmlns="http://www.w3.org/2000/svg" xmlns:xlink="http://www.w3.org/1999/xlink">
    <title>icon / satelite</title>
    <defs>
        <path d="M74.6846847,48.8461538 C76.0081779,48.8461538 77.0810811,49.9137825 77.0810811,51.2307692 L77.0810811,65.5384615 L80.6340811,65.5383846 L80.6341073,59.6396761 C80.6341073,56.3937012 82.652898,53.7473285 85.180941,53.6201681 L85.3714755,53.6153846 L126.262632,53.6153846 C128.815194,53.6153846 130.896242,56.1825872 130.996238,59.3973822 L131,59.6396761 L131,76.2064777 C131,79.4524527 128.981209,82.0988253 126.453166,82.2259857 L126.262632,82.2307692 L85.3714755,82.2307692 C82.8189133,82.2307692 80.737865,79.6635667 80.6378689,76.4487716 L80.6341073,76.2064777 L80.6340811,71.4993846 L77.0810811,71.5 L77.0810811,84.6153846 C77.0810811,85.9323713 76.0081779,87 74.6846847,87 L54.3153153,87 C52.9918221,87 51.9189189,85.9323713 51.9189189,84.6153846 L51.9189189,71.5 L48.3659189,71.5007692 L48.3658927,76.2064777 C48.3658927,79.4524527 46.347102,82.0988253 43.819059,82.2259857 L43.6285245,82.2307692 L2.73736824,82.2307692 C0.184806062,82.2307692 -1.89624228,79.6635667 -1.99623835,76.4487716 L-2,76.2064777 L-2,59.6396761 C-2,56.3937012 0.0187907271,53.7473285 2.54683375,53.6201681 L2.73736824,53.6153846 L43.6285245,53.6153846 C46.1810867,53.6153846 48.262135,56.1825872 48.3621311,59.3973822 L48.3658927,59.6396761 L48.3659189,65.5387692 L51.9189189,65.5384615 L51.9189189,51.2307692 C51.9189189,49.9137825 52.9918221,48.8461538 54.3153153,48.8461538 L74.6846847,48.8461538 Z M72.2882883,53.6153846 L56.7117117,53.6153846 L56.7117117,82.2307692 L72.2882883,82.2307692 L72.2882883,53.6153846 Z M125.064434,60.7064777 L86.7220913,60.7064777 L86.7220913,75.01417 L125.064434,75.01417 L125.064434,60.7064777 Z M42.4303263,60.7064777 L4.08798397,60.7064777 L4.08798397,75.01417 L42.4303263,75.01417 L42.4303263,60.7064777 Z M64.5,39.3076923 C66.2617353,39.3076923 67.9557831,40.1169667 69.570096,41.6544696 L69.8918919,41.9716559 L67.8372086,44.0769231 C66.6301614,42.8468345 65.5226322,42.28097 64.5,42.28097 C63.5504129,42.28097 62.5276239,42.7688838 61.4199265,43.8234635 L61.1627914,44.0769231 L59.1081081,41.9716559 C60.8186447,40.2284667 62.6208157,39.3076923 64.5,39.3076923 Z M64.5,32.1538462 C67.802049,32.1538462 71.0528775,33.3419689 74.2311427,35.6656348 L74.6846847,36.0053061 L72.7015207,38.1153846 C69.8985499,35.966123 67.1728894,34.9217194 64.5,34.9217194 C61.967789,34.9217194 59.3882156,35.8590789 56.7404147,37.7852004 L56.2984793,38.1153846 L54.3153153,36.0053061 C57.6376359,33.4578176 61.0407106,32.1538462 64.5,32.1538462 Z M64.510487,25 C70.0694015,25 75.6116113,26.4015889 81.122574,29.1900671 L81.8738739,29.5789091 L80.4229708,32.1530491 C75.095469,29.3340773 69.7968466,27.9329896 64.510487,27.9329896 C59.463986,27.9329896 54.3993527,29.2098239 49.302374,31.7781545 L48.5740126,32.1538462 L47.1261261,29.5781121 C52.8991112,26.5316567 58.6993454,25 64.510487,25 Z" id="path-1"></path>
    </defs>
    <g id="icon-/-satelite" stroke="none" stroke-width="1" fill="none" fill-rule="evenodd">

        <use id="Mask" fill="#8AC854" fill-rule="nonzero" opacity="0.900000036" transform="translate(64.500000, 56.000000) rotate(-30.000000) translate(-64.500000, -56.000000) " xlink:href="#path-1"></use>
    </g>
</svg>
