<?xml version="1.0" encoding="UTF-8"?>
<svg width="67px" height="67px" viewBox="0 0 67 67" version="1.1" xmlns="http://www.w3.org/2000/svg" xmlns:xlink="http://www.w3.org/1999/xlink">
    <title>Combined Shape</title>
    <g id="Symbols" stroke="none" stroke-width="1" fill="none" fill-rule="evenodd">
        <g id="icon-/-icon_cross" transform="translate(-29.000000, -29.000000)" fill="#3C3C3C">
            <path d="M63.5,18 C65.4329966,18 67,19.5670034 67,21.5 L67,58 L103.5,58 C105.432997,58 107,59.5670034 107,61.5 L107,63.5 C107,65.4329966 105.432997,67 103.5,67 L66.999,67 L67,103.5 C67,105.432997 65.4329966,107 63.5,107 L61.5,107 C59.5670034,107 58,105.432997 58,103.5 L57.999,67 L21.5,67 C19.5670034,67 18,65.4329966 18,63.5 L18,61.5 C18,59.5670034 19.5670034,58 21.5,58 L58,58 L58,21.5 C58,19.5670034 59.5670034,18 61.5,18 L63.5,18 Z" id="Combined-Shape" transform="translate(62.500000, 62.500000) rotate(-315.000000) translate(-62.500000, -62.500000) "></path>
        </g>
    </g>
</svg>