<svg width="14px" height="9px" viewBox="0 0 14 9" version="1.1" xmlns="http://www.w3.org/2000/svg" xmlns:xlink="http://www.w3.org/1999/xlink">
  <g id="Main-UI" stroke="none" stroke-width="1" fill="none" fill-rule="evenodd">
    <g id="Sat4envi" transform="translate(-279.000000, -321.000000)" fill="#000000" fill-rule="nonzero">
      <g id="Nakladki" transform="translate(15.000000, 276.000000)">
        <g id="eye-regular-copy" transform="translate(264.000000, 45.000000)">
          <path d="M6.240693,1.9921875 C6.35448227,2.18515233 6.41506847,2.40302554 6.41666556,2.625 C6.41666556,3.34987373 5.8072742,3.9375 5.05555186,3.9375 C4.82535569,3.93595995 4.59941267,3.87753765 4.39930062,3.7678125 C4.07551464,4.85064003 4.50660652,6.01177077 5.46951694,6.65040232 C6.43242735,7.28903387 7.71109642,7.26186872 8.64390403,6.58296292 C9.57671165,5.90405711 9.95435246,4.72574496 9.58142426,3.65771903 C9.20849605,2.58969309 8.16867726,1.8715993 7,1.875 C6.74239157,1.87888262 6.48668976,1.91834631 6.240693,1.9921875 Z M13.9154298,4.1578125 C12.597337,1.67789062 9.98788762,0 7,0 C4.01211238,0 1.40193382,1.6790625 0.0845702026,4.15804687 C-0.0281900675,4.37313277 -0.0281900675,4.62710161 0.0845702026,4.8421875 C1.40266298,7.32210937 4.01211238,9 7,9 C9.98788762,9 12.5980662,7.3209375 13.9154298,4.84195312 C14.0281901,4.62686723 14.0281901,4.37289839 13.9154298,4.1578125 Z M7,7.875 C4.60225239,7.875 2.40405377,6.5859375 1.21696819,4.5 C2.40405377,2.4140625 4.60200934,1.125 7,1.125 C9.39799066,1.125 11.5959462,2.4140625 12.7830318,4.5 C11.5961893,6.5859375 9.39799066,7.875 7,7.875 Z" id="Shape"></path>
        </g>
      </g>
    </g>
  </g>
</svg>
