<?xml version="1.0" encoding="UTF-8"?>
<svg width="58px" height="92px" viewBox="0 0 58 92" version="1.1" xmlns="http://www.w3.org/2000/svg" xmlns:xlink="http://www.w3.org/1999/xlink">
  <title>Shape</title>
  <g id="Symbols" stroke="none" stroke-width="1" fill="none" fill-rule="evenodd">
    <g id="icon-/-zk" transform="translate(-45.000000, -18.000000)" fill="#3C3C3C" fill-rule="nonzero">
      <path d="M98.6513075,46.75 L77.7352952,46.75 L85.4564575,23.4265625 C86.1814492,20.6953125 84.0970979,18 81.2515052,18 L55.1518019,18 C52.9768266,18 51.1280976,19.5992187 50.8381009,21.7375 L45.0381668,64.8625 C44.6937957,67.45 46.7237726,69.75 49.3518678,69.75 L70.8659983,69.75 L62.5104682,104.699219 C61.8579756,107.430469 63.9604517,110 66.7335452,110 C68.2379031,110 69.7060114,109.209375 70.5035024,107.84375 L102.40314,53.21875 C104.088746,50.3617188 102.004394,46.75 98.6513075,46.75 Z M70.373494,96 L76.4277108,70.8204495 L78.1084337,63.8142751 L51,63.8142751 L56.4036145,24 L79.1566265,24 L72.1626506,44.9829588 L69.6686747,52.4514695 L96,52.4514695 L70.373494,96 Z" id="Shape"></path>
    </g>
  </g>
</svg>
