<?xml version="1.0" encoding="UTF-8"?>
<svg width="20px" height="19px" viewBox="0 0 20 19" version="1.1" xmlns="http://www.w3.org/2000/svg" xmlns:xlink="http://www.w3.org/1999/xlink">
    <title>icon / earth</title>
    <defs>
        <path d="M10.7789855,6.00266503e-14 C11.379295,6.00266503e-14 11.865942,0.472787304 11.865942,1.05591247 L11.865942,1.05591247 L11.865942,1.849408 L11.909127,1.86548547 C12.0458461,1.91778315 12.1810486,1.97391608 12.314573,2.03383666 L12.314573,2.03383666 L12.3458333,2.048112 L12.9274728,1.48317779 C13.3410716,1.08135833 14.0050585,1.07105527 14.4314977,1.4522686 L14.4314977,1.4522686 L14.4646615,1.48317779 L16.7704445,3.72329207 C17.1949274,4.13568572 17.1949274,4.80430794 16.7704833,5.21666389 L16.7704833,5.21666389 L16.1405797,5.828592 L16.1517192,5.85318361 C16.2079059,5.97935406 16.2604546,6.10695906 16.3093235,6.23585608 L16.3093235,6.23585608 L16.3137681,6.248 L17.2101449,6.248 C17.796811,6.248 18.2749224,6.69954118 18.2963517,7.26441087 L18.2963517,7.26441087 L18.2971014,7.304 L18.2971014,10.472 C18.2971014,11.0259945 17.8567706,11.4845384 17.2905021,11.5251263 L17.2905021,11.5251263 L17.2367591,11.527525 L16.2652174,11.528 L16.2413747,11.5884217 L16.155905,11.7904525 L16.1264015,11.8575866 L16.1021739,11.910096 L16.7704445,12.5592984 C17.1840432,12.9611179 17.1946483,13.6061944 16.8022598,14.0204886 L16.8022598,14.0204886 L16.7704445,14.0527079 L14.4646615,16.2928222 C14.0614446,16.6845555 13.4163391,16.7063016 12.9863855,16.3459931 L12.9863855,16.3459931 L12.9664607,16.3286625 L12.9275599,16.2929068 L12.2932971,15.677024 L12.1525837,15.7390615 C12.0662903,15.7758993 11.9792785,15.8111974 11.8915876,15.8449345 L11.8915876,15.8449345 L11.865942,15.854432 L11.865942,16.72 C11.865942,17.2899579 11.401164,17.7544526 10.8197352,17.7752716 L10.8197352,17.7752716 L10.7789855,17.776 L7.51811594,17.776 C6.91780643,17.776 6.43115942,17.3032127 6.43115942,16.7199444 L6.43115942,16.7199444 L6.43115942,15.920784 L6.39855412,15.9095794 C6.26052367,15.8602217 6.12406345,15.8070328 5.98932231,15.7500899 L5.98932231,15.7500899 L5.94710145,15.73176 L5.36962862,16.2928222 C4.95602987,16.6946417 4.29204296,16.7049447 3.8656038,16.3237314 L3.8656038,16.3237314 L3.83243996,16.2928222 L1.52665698,14.0527079 C1.10217405,13.6403143 1.10217405,12.9716921 1.52672947,12.559228 L1.52672947,12.559228 L2.06974638,12.031712 C1.99188109,11.8683176 1.92034169,11.7030274 1.85499133,11.5352788 L1.85499133,11.5352788 L1.85217391,11.528 L1.08695652,11.528 C0.500290409,11.528 0.0221790287,11.0764588 0.000749723199,10.5115891 L0.000749723199,10.5115891 L0,7.304 C0,6.7207873 0.486647011,6.248 1.08699063,6.248 L1.08699063,6.248 L1.85217391,6.248 L1.88153589,6.17336495 L1.90686096,6.11108595 L1.99043298,5.91441386 L2.02273014,5.8411123 L2.06793478,5.742704 L1.52665698,5.21670159 C1.11305823,4.81488214 1.10245313,4.16980558 1.49484169,3.7555114 L1.49484169,3.7555114 L1.52665698,3.72329207 L3.83243996,1.48317779 C4.25692289,1.07078414 4.94514569,1.07078414 5.36965273,1.48320122 L5.36965273,1.48320122 L5.91068841,2.008864 L6.04455564,1.95154618 C6.17174277,1.89849943 6.30033976,1.8488352 6.43115942,1.80224 L6.43115942,1.80224 L6.43115942,1.056 C6.43115942,0.486042138 6.89593748,0.0215473699 7.47736626,0.000728371082 L7.47736626,0.000728371082 Z M10.4166667,1.408 L7.88025362,1.408 L7.88053592,2.84320661 L7.35557874,2.98942744 C6.92400882,3.10963631 6.50679748,3.27482871 6.110907,3.48302168 L6.110907,3.48302168 L5.63564913,3.7329528 L4.6009058,2.727648 L2.8076087,4.469872 L3.84224552,5.47536414 L3.58504571,5.93701262 C3.47916856,6.12705172 3.3841772,6.32200127 3.29723945,6.52837515 C3.20872523,6.73205976 3.13173563,6.94048655 3.06667695,7.15286836 L3.06667695,7.15286836 L2.91252763,7.65608349 L1.44927536,7.656 L1.44927536,10.12 L2.91258868,10.1201659 L3.06672511,10.6232888 C3.19513724,11.042444 3.36991799,11.4458405 3.5875879,11.8272942 L3.5875879,11.8272942 L3.85240038,12.2913624 L2.8076087,13.305952 L4.6009058,15.048176 L5.66507751,14.0148511 L6.13803835,14.2581392 C6.52427888,14.4568188 6.93124774,14.6156241 7.35310982,14.7315368 L7.35310982,14.7315368 L7.88058476,14.876468 L7.88043478,16.368 L10.4166667,16.368 L10.4168133,14.8389775 L10.9252108,14.6845821 C11.3275439,14.5623974 11.7152511,14.4008554 12.0830842,14.202773 L12.0830842,14.202773 L12.5605872,13.9456321 L13.6960145,15.048176 L15.4893116,13.305952 L14.3349361,12.1845521 L14.5854289,11.7249681 C14.6804967,11.5505452 14.766674,11.3718082 14.8462162,11.1832167 C14.9264278,10.9979768 14.9970181,10.809037 15.0578,10.6170829 L15.0578,10.6170829 L15.2151653,10.1201108 L16.8478261,10.12 L16.8478261,7.655824 L15.2424324,7.65603392 L15.0919284,7.14605191 C14.9759958,6.75321475 14.8193982,6.37256613 14.6237975,6.00970678 L14.6237975,6.00970678 L14.3766807,5.55127978 L15.4893116,4.469872 L13.6960145,2.727648 L12.6105832,3.78246112 L12.132116,3.52258441 C11.7494552,3.31474442 11.3461074,3.147464 10.928395,3.02261732 L10.928395,3.02261732 L10.4168988,2.86974033 L10.4166667,1.408 Z M9.14855072,4.752 C11.499763,4.752 13.4057971,6.60375027 13.4057971,8.888 C13.4057971,11.1722497 11.499763,13.024 9.14855072,13.024 C6.79733847,13.024 4.89130435,11.1722497 4.89130435,8.888 C4.89130435,6.60375027 6.79733847,4.752 9.14855072,4.752 Z M9.14855072,5.808 C7.39764799,5.808 5.97826087,7.18696297 5.97826087,8.888 C5.97826087,10.589037 7.39764799,11.968 9.14855072,11.968 C10.8994535,11.968 12.3188406,10.589037 12.3188406,8.888 C12.3188406,7.18696297 10.8994535,5.808 9.14855072,5.808 Z" id="path-1"></path>
    </defs>
    <g id="Symbols" stroke="none" stroke-width="1" fill="none" fill-rule="evenodd">
        <g id="ustawienia-GR-/-sidebar" transform="translate(-18.000000, -309.000000)">
            <g id="zarzadzanie-instytucja" transform="translate(0.000000, 307.000000)">
                <g id="icon-/-cog" transform="translate(15.000000, 0.000000)">
                    <g id="color-/-yellow" transform="translate(3.804348, 2.464000)">
                        <mask id="mask-2" fill="white">
                            <use xlink:href="#path-1"></use>
                        </mask>
                        <use id="Mask"  fill-rule="nonzero" xlink:href="#path-1"></use>
                        <g id="color-/-primary" mask="url(#mask-2)" fill="#8AC854">
                            <g transform="translate(-3.804348, -2.464000)" id="Rectangle">
                                <rect x="0" y="0" width="25" height="22"></rect>
                            </g>
                        </g>
                    </g>
                </g>
            </g>
        </g>
    </g>
</svg>
