<?xml version="1.0" encoding="UTF-8"?>
<svg width="42px" height="39px" viewBox="0 0 42 39" version="1.1" xmlns="http://www.w3.org/2000/svg" xmlns:xlink="http://www.w3.org/1999/xlink">
    <title>Group 3</title>
    <g id="Sentinel-search" stroke="none" stroke-width="1" fill="none" fill-rule="evenodd">
        <g id="Szukaj-danych-/-czysczaznaczenie" transform="translate(-28.000000, -76.000000)" fill="#76B0C2">
            <g id="Group-3" transform="translate(28.000000, 76.000000)">
                <path d="M25.4807107,34.8633265 L27.1267706,35.8130642 L27.1915323,35.7165932 C27.4712157,35.3494619 27.9945808,35.242653 28.4141927,35.4849161 C28.8687724,35.7473677 29.0294461,36.3201091 28.7730676,36.7641696 L28.3088533,37.5682124 C28.0524748,38.012273 27.4761294,38.1594961 27.0215498,37.8970444 L24.5522821,36.4714121 C24.0977024,36.2089604 23.9370287,35.636219 24.1934071,35.1921585 C24.4497856,34.7480979 25.0261311,34.6008748 25.4807107,34.8633265 Z M27.1267706,35.8130642 L26.6626749,36.6177909 L27.9499784,36.2889589 L27.1267706,35.8130642 Z M18.8959968,31.0616402 L22.1883538,32.9624833 C22.6429334,33.224935 22.8036072,33.7976763 22.5472287,34.2417369 C22.2908502,34.6857975 21.7145048,34.8330206 21.2599251,34.5705689 L17.9675682,32.6697257 C17.5129886,32.4072741 17.3523148,31.8345327 17.6086933,31.3904721 C17.8650718,30.9464116 18.4414172,30.7991885 18.8959968,31.0616402 Z M32.1279073,29.0525738 C32.5824869,29.3150255 32.7431607,29.8877668 32.4867822,30.3318274 L30.6299249,33.5479985 C30.3735464,33.9920591 29.797201,34.1392822 29.3426214,33.8768305 C28.8880417,33.6143788 28.727368,33.0416375 28.9837464,32.5975769 L30.8406037,29.3814058 C31.0969822,28.9373452 31.6733276,28.7901221 32.1279073,29.0525738 Z M12.3112829,27.2599538 L15.6036399,29.160797 C16.0582195,29.4232487 16.2188933,29.99599 15.9625148,30.4400506 C15.7061363,30.8841111 15.1297909,31.0313342 14.6752112,30.7688826 L11.3828543,28.8680394 C10.9282747,28.6055877 10.7676009,28.0328464 11.0239794,27.5887858 C11.2803579,27.1447252 11.8567033,26.9975021 12.3112829,27.2599538 Z M5.72656907,23.4582675 L9.01892601,25.3591107 C9.47350564,25.6215623 9.63417941,26.1943037 9.37780092,26.6383642 C9.12142243,27.0824248 8.545077,27.2296479 8.09049737,26.9671962 L4.79814043,25.0663531 C4.3435608,24.8039014 4.18288702,24.2311601 4.43926551,23.7870995 C4.695644,23.3430389 5.27198943,23.1958158 5.72656907,23.4582675 Z M3.00376585,18.6700852 C3.45834548,18.9325368 3.61901925,19.5052782 3.36264076,19.9493388 L2.43421213,21.5574243 C2.88879176,21.819876 3.04946553,22.3926173 2.79308704,22.8366779 C2.53670855,23.2807385 1.96036312,23.4279616 1.50578349,23.1655099 L0.682694254,22.6902991 C0.228114622,22.4278474 0.0674408494,21.8551061 0.323819338,21.4110455 L1.71646229,18.9989172 C1.97284078,18.5548566 2.54918622,18.4076335 3.00376585,18.6700852 Z M1.61112289,21.0822135 L1.96999781,22.3614671 L2.43421213,21.5574243 L1.61112289,21.0822135 Z M6.7174804,12.2377429 C7.17206003,12.5001946 7.3327338,13.0729359 7.07635531,13.5169965 L5.21949804,16.7331676 C4.96311955,17.1772282 4.38677412,17.3244513 3.93219449,17.0619996 C3.47761485,16.7995479 3.31694108,16.2268066 3.57331957,15.782746 L5.43017684,12.5665749 C5.68655533,12.1225143 6.26290077,11.9752912 6.7174804,12.2377429 Z M24.7397301,7.63409497 L28.0320871,9.53493814 C28.4866667,9.79738981 28.6473405,10.3701311 28.390962,10.8141917 C28.1345835,11.2582523 27.5582381,11.4054754 27.1036585,11.1430237 L23.8113015,9.24218054 C23.3567219,8.97972887 23.1960481,8.40698753 23.4524266,7.96292696 C23.7088051,7.5188664 24.2851505,7.3716433 24.7397301,7.63409497 Z M10.4311949,5.80540061 C10.8857746,6.06785228 11.0464484,6.64059361 10.7900699,7.08465418 L8.93321259,10.3008253 C8.6768341,10.7448859 8.10048867,10.892109 7.64590904,10.6296573 C7.1913294,10.3672056 7.03065563,9.79446431 7.28703412,9.35040374 L9.14389139,6.1342326 C9.40026988,5.69017203 9.97661532,5.54294893 10.4311949,5.80540061 Z M18.1550163,3.83240864 L21.4473732,5.7332518 C21.9019528,5.99570348 22.0626266,6.56844481 21.8062481,7.01250538 C21.5498696,7.45656595 20.9735242,7.60378905 20.5189446,7.34133738 L17.2265876,5.44049421 C16.772008,5.17804254 16.6113342,4.6053012 16.8677127,4.16124063 C17.1240912,3.71718007 17.7004366,3.56995697 18.1550163,3.83240864 Z M13.2164809,0.981143892 L14.8626593,1.93156547 C15.317239,2.19401715 15.4779127,2.76675848 15.2215342,3.21081905 C14.9651558,3.65487962 14.3888103,3.80210272 13.9342307,3.53965105 L13.1107706,3.06406425 L12.6469271,3.86848304 C12.3905487,4.31254361 11.8142032,4.45976671 11.3596236,4.19731503 C10.905044,3.93486336 10.7443702,3.36212203 11.0007487,2.91806146 L11.9291773,1.30997589 C12.1855558,0.865915317 12.7619012,0.718692219 13.2164809,0.981143892 Z M13.5753558,2.26039747 L12.2880522,2.58922946 L13.1107706,3.06406425 L13.5753558,2.26039747 Z" id="Combined-Shape" fill-rule="nonzero"></path>
                <path d="M33.8109597,9.23909375 C34.4737014,9.23909375 35.0109597,9.77635208 35.0109597,10.4390938 L35.0109594,16.4390938 L39.8109599,16.439094 C40.4737016,16.439094 41.01096,16.9763524 41.01096,17.6390941 C41.01096,18.3018358 40.4737016,18.8390941 39.8109599,18.8390941 L35.0109594,18.8390938 L35.0109597,24.8390944 C35.0109597,25.5018361 34.4737014,26.0390944 33.8109597,26.0390944 C33.148218,26.0390944 32.6109596,25.5018361 32.6109596,24.8390944 L32.6109594,18.8390938 L27.8109594,18.8390941 C27.1482177,18.8390941 26.6109594,18.3018358 26.6109594,17.6390941 C26.6109594,16.9763524 27.1482177,16.439094 27.8109594,16.439094 L32.6109594,16.4390938 L32.6109596,10.4390938 C32.6109596,9.77635208 33.148218,9.23909375 33.8109597,9.23909375 Z" id="Combined-Shape"></path>
            </g>
        </g>
    </g>
</svg>