<?xml version="1.0" encoding="UTF-8"?>
<svg width="96px" height="96px" viewBox="0 0 96 96" version="1.1" xmlns="http://www.w3.org/2000/svg" xmlns:xlink="http://www.w3.org/1999/xlink">
    <title>color / primary</title>
    <defs>
        <path d="M48,0 C74.509668,0 96,21.490332 96,48 C96,74.509668 74.509668,96 48,96 C21.490332,96 0,74.509668 0,48 C0,21.490332 21.490332,0 48,0 Z M75.8890873,29.1109127 C73.7412037,26.9630291 70.2587963,26.9630291 68.1109127,29.1109127 L68.1109127,29.1109127 L37,60.221 L24.8890873,48.1109127 L24.707065,47.9368944 C22.5487663,45.9646864 19.1991329,46.0226925 17.1109127,48.1109127 C14.9630291,50.2587963 14.9630291,53.7412037 17.1109127,55.8890873 L17.1109127,55.8890873 L33.1109127,71.8890873 L33.292935,72.0631056 C35.4512337,74.0353136 38.8008671,73.9773075 40.8890873,71.8890873 L40.8890873,71.8890873 L75.8890873,36.8890873 L76.0631056,36.707065 C78.0353136,34.5487663 77.9773075,31.1991329 75.8890873,29.1109127 Z" id="path-1"></path>
    </defs>
    <g id="Symbols" stroke="none" stroke-width="1" fill="none" fill-rule="evenodd">
        <g id="icon-/-tic" transform="translate(-21.000000, -15.000000)">
            <g id="color-/-primary" transform="translate(21.000000, 15.000000)">
                <mask id="mask-2" fill="white">
                    <use xlink:href="#path-1"></use>
                </mask>
                <use id="Mask" xlink:href="#path-1"></use>
                <g mask="url(#mask-2)" fill="#8AC854" id="Rectangle">
                    <g transform="translate(-21.000000, -15.000000)">
                        <rect x="0" y="0" width="138" height="125"></rect>
                    </g>
                </g>
            </g>
        </g>
    </g>
</svg>
