<?xml version="1.0" encoding="UTF-8"?>
<svg width="15px" height="17px" viewBox="0 0 15 17" version="1.1" xmlns="http://www.w3.org/2000/svg" xmlns:xlink="http://www.w3.org/1999/xlink">
    <!-- Generator: Sketch 64 (93537) - https://sketch.com -->
    <title>icon / magnifying</title>
    <desc>Created with Sketch.</desc>
    <g id="Symbols" stroke="none" stroke-width="1" fill="none" fill-rule="evenodd">
        <g id="search-/-result-list" transform="translate(-265.000000, -12.000000)" fill="#B4B4B4" fill-rule="nonzero">
            <g id="icon-/-mygnifying" transform="translate(265.000000, 12.000000)">
                <path d="M6.5,1.77635684e-15 C10.0898509,1.77635684e-15 13,2.91014913 13,6.5 C13,8.24990222 12.3085035,9.83829678 11.1838579,11.0068363 L14.8270497,15.5885459 C15.0894392,15.9185616 15.0346173,16.398801 14.7046015,16.6611905 C14.5968898,16.7468301 14.4680326,16.8017632 14.3316624,16.820178 L13.5911709,16.9201708 C13.2269945,16.9693476 12.8651865,16.8148207 12.6488997,16.5177301 L9.54004505,12.2467401 C8.63289081,12.7276246 7.59825374,13 6.5,13 C2.91014913,13 -9.14823772e-14,10.0898509 -9.14823772e-14,6.5 C-9.14823772e-14,2.91014913 2.91014913,1.77635684e-15 6.5,1.77635684e-15 Z M6.5,2 C4.01471863,2 2,4.01471863 2,6.5 C2,8.98528137 4.01471863,11 6.5,11 C7.26504142,11 7.98549295,10.809088 8.61631244,10.4723062 C8.65831083,10.278964 8.7698047,10.1013785 8.94189415,9.97609459 C8.97825297,9.94962477 9.01664766,9.92607102 9.05671933,9.90565348 L9.21958182,9.8226709 C9.35643669,9.75293986 9.50303887,9.71745296 9.64878603,9.713907 C10.4826605,8.89792547 11,7.7593783 11,6.5 C11,4.01471863 8.98528137,2 6.5,2 Z M6.7763932,3.5527864 L7.2236068,4.4472136 L5.5,5.309 L5.5,7 L4.5,7 L4.5,4.69098301 L6.7763932,3.5527864 Z" id="Combined-Shape"></path>
            </g>
        </g>
    </g>
</svg>