<?xml version="1.0" encoding="UTF-8"?>
<svg width="159px" height="159px" viewBox="0 0 159 159" version="1.1" xmlns="http://www.w3.org/2000/svg" xmlns:xlink="http://www.w3.org/1999/xlink">
    <title>icon / star / big</title>
    <defs>
        <path d="M77.5,130.654536 L104.478,144.785 L99.8104077,152.560314 C98.3929251,154.930171 95.3214721,155.697389 92.9538516,154.27618 C92.952609,154.275434 92.9513667,154.274688 92.9523647,154.270217 L76.2945515,144.251097 L59.3100532,153.666469 C56.8948575,155.005233 53.8516713,154.132614 52.5129065,151.717418 L49.086,145.536 L77.5,130.654536 Z M145.023,77.24 L144.153692,78.6891577 L153.580073,95.6949732 C154.918837,98.1101688 154.046218,101.153355 151.631022,102.49212 L134.646555,111.906053 L134.315321,131.342356 C134.299357,132.375896 133.970413,133.330839 133.420224,134.118744 L126.683651,95.0485879 L145.023,77.24 Z M10.083,77.343 L28.316349,95.0485879 L21.6201545,133.885515 C19.8971311,133.070385 18.7178978,131.303348 18.749225,129.274868 L19.0804128,109.838386 L2.4226149,99.8208834 C0.0599279832,98.3947639 -0.705381225,95.3252777 0.711224422,92.9568743 L10.083,77.343 Z M72.2235625,18.8612553 C74.8041187,13.6804507 82.2177504,13.7454817 84.7764375,18.8612553 L84.7764375,18.8612553 L99.0569729,47.5616123 L131.007757,52.1788147 C136.737467,53.002541 139.033724,60.0042141 134.878592,64.0144604 L134.878592,64.0144604 L111.762932,86.3417773 L117.230212,117.881822 C118.214322,123.582875 112.156576,127.831568 107.08294,125.186973 L107.08294,125.186973 L78.5,110.29487 L49.9170601,125.186973 C44.8434242,127.853245 38.785678,123.582875 39.7697884,117.881822 L39.7697884,117.881822 L45.2370684,86.3417773 L22.1214085,64.0144604 C17.9662757,60.0042141 20.2625333,53.002541 25.9922427,52.1788147 L25.9922427,52.1788147 L57.9430271,47.5616123 Z M74.1164564,34.3528787 L64.1427491,54.4431286 L41.8279156,57.6751703 C37.8262137,58.2517787 36.2224783,63.1529499 39.1244758,65.9601223 L55.2687462,81.5892441 L51.4503284,103.667275 C50.7630132,107.658012 54.9938201,110.647272 58.5373118,108.780881 L78.5,98.3564088 L98.4626882,108.780881 C102.00618,110.632098 106.236987,107.658012 105.549672,103.667275 L101.731254,81.5892441 L117.875524,65.9601223 C120.777522,63.1529499 119.173786,58.2517787 115.172084,57.6751703 L92.8572509,54.4431286 L82.8835436,34.3528787 C81.0965241,30.7718372 75.9187496,30.7263155 74.1164564,34.3528787 Z M102.349444,3.27247276 L111.775681,20.2776805 L131.199015,20.6263111 C133.958221,20.680024 136.155741,22.9556228 136.113126,25.7150232 L135.844,41.462 L107.896208,37.4023966 L91.225,3.721 L95.5522975,1.32342233 C97.9674931,-0.0153424712 101.010679,0.857277132 102.349444,3.27247276 Z M61.908499,0.713710583 C61.9097416,0.714456475 61.9109839,0.715202908 61.9099859,0.719674104 L64.491,2.272 L47.1037923,37.4023966 L20.245,41.304 L20.5470299,23.647535 C20.5896779,20.8864372 22.8660256,18.6862808 25.6270495,18.7332741 C25.6284986,18.7332988 25.6299476,18.7333241 25.6313189,18.7376952 L45.0545003,19.0840993 L55.0519429,2.42957706 C56.4694256,0.0597199186 59.5408786,-0.707498264 61.908499,0.713710583 Z" id="path-1"></path>
    </defs>
    <g id="icon-/-star-/-big" stroke="none" stroke-width="1" fill="none" fill-rule="evenodd">
        <g id="color-/-primary" transform="translate(2.000000, 2.000000)">
            <g>
                <mask id="mask-2" fill="white">
                    <use xlink:href="#path-1"></use>
                </mask>

                <g mask="url(#mask-2)" fill="#8AC854" id="Rectangle">
                    <g transform="translate(-11.567164, -13.866667)">
                        <rect x="0" y="0" width="183.91791" height="183.733333"></rect>
                    </g>
                </g>
            </g>
        </g>
    </g>
</svg>
