<?xml version="1.0" encoding="utf-8"?>
<!-- Svg Vector Icons : http://www.onlinewebfonts.com/icon -->
<!DOCTYPE svg PUBLIC "-//W3C//DTD SVG 1.1//EN" "http://www.w3.org/Graphics/SVG/1.1/DTD/svg11.dtd">
<svg version="1.1" xmlns="http://www.w3.org/2000/svg" xmlns:xlink="http://www.w3.org/1999/xlink" x="0px" y="0px" viewBox="0 0 1000 1000" enable-background="new 0 0 1000 1000" xml:space="preserve">
<metadata> Svg Vector Icons : http://www.onlinewebfonts.com/icon </metadata>
<g><path d="M745,132.5h-61.3v-30.6c0-50.7-41.1-91.9-91.9-91.9H408.1c-50.7,0-91.9,41.1-91.9,91.9v30.6H255c-67.7,0-122.5,54.8-122.5,122.5v61.3h735V255C867.5,187.3,812.7,132.5,745,132.5z M377.5,132.5v-15.3c0-25.4,20.6-45.9,45.9-45.9h153.1c25.4,0,45.9,20.6,45.9,45.9v15.3H377.5z"/><path d="M193.7,377.5v520.6c0,50.7,41.1,91.9,91.9,91.9h428.8c50.7,0,91.9-41.1,91.9-91.9V377.5H193.7z M377.5,867.5v61.3h-61.3c-33.8,0-61.3-27.4-61.3-61.3V438.8h122.5V867.5z M561.3,867.5v61.3H438.8v-61.3V438.8h122.5V867.5z M745,867.5c0,33.8-27.4,61.3-61.3,61.3h-61.3v-61.3V438.8H745V867.5z"/></g>
</svg>