<?xml version="1.0" encoding="UTF-8"?>
<svg width="20px" height="350px" viewBox="0 0 20 350" version="1.1" xmlns="http://www.w3.org/2000/svg" xmlns:xlink="http://www.w3.org/1999/xlink">
    <title>legenda / suma opadu</title>
    <g id="legenda-/-suma-opadu" stroke="none" stroke-width="1" fill="none" fill-rule="evenodd">
        <g id="Group" transform="translate(10.000000, 167.500000) rotate(-180.000000) translate(-10.000000, -167.500000) translate(0.000000, -0.000000)">
            <rect id="Rectangle" fill="#00005A" x="0" y="-3.18323146e-12" width="20" height="18"></rect>
            <rect id="Rectangle" fill="#0000B3" x="0" y="18" width="20" height="17"></rect>
            <rect id="Rectangle" fill="#000CFF" x="0" y="35" width="20" height="16"></rect>
            <rect id="Rectangle" fill="#0053FF" x="0" y="51" width="20" height="18"></rect>
            <rect id="Rectangle" fill="#019CFF" x="0" y="69" width="20" height="16"></rect>
            <rect id="Rectangle" fill="#02E4FF" x="0" y="85" width="20" height="16"></rect>
            <rect id="Rectangle" fill="#01ECD0" x="0" y="101" width="20" height="18"></rect>
            <rect id="Rectangle" fill="#00CE84" x="0" y="119" width="20" height="17"></rect>
            <rect id="Rectangle" fill="#01B13C" x="0" y="136" width="20" height="15"></rect>
            <rect id="Rectangle" fill="#12A000" x="0" y="151" width="20" height="18"></rect>
            <rect id="Rectangle" fill="#6AC500" x="0" y="169" width="20" height="17"></rect>
            <rect id="Rectangle" fill="#C3E700" x="0" y="186" width="20" height="15"></rect>
            <rect id="Rectangle" fill="#FFEB00" x="0" y="201" width="20" height="18"></rect>
            <rect id="Rectangle" fill="#FFAD02" x="0" y="219" width="20" height="16"></rect>
            <rect id="Rectangle" fill="#FA6C00" x="0" y="235" width="20" height="16"></rect>
            <rect id="Rectangle" fill="#FF3001" x="0" y="251" width="20" height="18"></rect>
            <rect id="Rectangle" fill="#F90000" x="0" y="269" width="20" height="16"></rect>
            <rect id="Rectangle" fill="#D70000" x="0" y="285" width="20" height="17"></rect>
            <rect id="Rectangle" fill="#B90000" x="0" y="302" width="20" height="18"></rect>
            <rect id="Rectangle" fill="#990001" x="0" y="320" width="20" height="15"></rect>
        </g>
        <rect id="Rectangle" stroke="#000000" x="0.5" y="335.5" width="19" height="14"></rect>
    </g>
</svg>