<?xml version="1.0" encoding="UTF-8"?>
<svg width="20px" height="350px" viewBox="0 0 20 350" version="1.1" xmlns="http://www.w3.org/2000/svg" xmlns:xlink="http://www.w3.org/1999/xlink">
    <title>legenda / ZK_daily_fire</title>
    <g id="legenda-/-ZK_daily_fire" stroke="none" stroke-width="1" fill="none" fill-rule="evenodd">
        <path d="M0,-33 L0,-17.5150567 C0.508535387,-17.9087208 1.08772715,-18.2855761 1.73729748,-18.5876038 C3.01635185,-19.182333 4.60553911,-19.4239319 6.31054431,-18.9721876 C8.01553251,-18.5204228 9.84550589,-17.3714163 11.6279253,-15.172393 C14.6322866,-11.4658257 16.8683682,-11.6683927 18.6679656,-12.5051373 C19.7438212,-13.0053762 20.4838791,-13.7072399 21,-14.2797803 L21,-33 L0,-33 Z M4.63768399,-13.9959377 C3.82217918,-14.0336608 3.08301138,-13.8043043 2.40820703,-13.4890763 C1.23617753,-12.9416111 0.491312082,-12.1751873 0,-11.5964051 L0,88 L21,88 L21,-8.39940599 C20.5101166,-8.02704463 19.9554445,-7.67016345 19.3388524,-7.38217153 C16.780755,-6.18729552 13.0159944,-6.39487549 9.45116702,-10.8131019 C7.57344121,-13.1403707 5.99686245,-13.9335985 4.63768399,-13.9959377 L4.63768399,-13.9959377 Z" id="rect913" fill="#FE0000" fill-rule="nonzero"></path>
        <rect id="rect913-3-9" fill="#FFFF00" fill-rule="nonzero" x="0" y="175" width="20" height="88"></rect>
        <rect id="rect913-3-9-2" fill="#00F400" fill-rule="nonzero" x="0" y="263" width="20" height="43"></rect>
        <rect id="rect913-3-9-2-5" fill="#0000FE" fill-rule="nonzero" x="0" y="306" width="20" height="44"></rect>
        <rect id="rect913-3-6" fill="#E0A000" fill-rule="nonzero" x="0" y="88" width="20" height="87"></rect>
    </g>
</svg>