<?xml version="1.0" encoding="UTF-8"?>
<svg viewBox="0 0 20 350" version="1.1" xmlns="http://www.w3.org/2000/svg" xmlns:xlink="http://www.w3.org/1999/xlink">
    <title>legenda / intensywnosc opadu</title>
    <g id="legenda-/-intensywnosc-opadu" stroke="none" stroke-width="1" fill="none" fill-rule="evenodd">
        <rect id="Rectangle" fill="#990001" x="0" y="0" width="20" height="15"></rect>
        <rect id="Rectangle" fill="#B90000" x="0" y="15" width="20" height="18"></rect>
        <rect id="Rectangle" fill="#D70000" x="0" y="33" width="20" height="17"></rect>
        <rect id="Rectangle" fill="#F80000" x="0" y="50" width="20" height="16"></rect>
        <rect id="Rectangle" fill="#FF3001" x="0" y="66" width="20" height="18"></rect>
        <rect id="Rectangle" fill="#FF6E00" x="0" y="84" width="20" height="16"></rect>
        <rect id="Rectangle" fill="#FFAD02" x="0" y="100" width="20" height="16"></rect>
        <rect id="Rectangle" fill="#FFEB01" x="0" y="116" width="20" height="18"></rect>
        <rect id="Rectangle" fill="#C3E700" x="0" y="134" width="20" height="17"></rect>
        <rect id="Rectangle" fill="#6AC400" x="0" y="151" width="20" height="15"></rect>
        <rect id="Rectangle" fill="#12A000" x="0" y="166" width="20" height="18"></rect>
        <rect id="Rectangle" fill="#01B13C" x="0" y="184" width="20" height="17"></rect>
        <rect id="Rectangle" fill="#01CF86" x="0" y="201" width="20" height="15"></rect>
        <rect id="Rectangle" fill="#01ECD0" x="0" y="216" width="20" height="18"></rect>
        <rect id="Rectangle" fill="#02E4FF" x="0" y="234" width="20" height="16"></rect>
        <rect id="Rectangle" fill="#019CFF" x="0" y="250" width="20" height="16"></rect>
        <rect id="Rectangle" fill="#0053FF" x="0" y="266" width="20" height="18"></rect>
        <rect id="Rectangle" fill="#000CFF" x="0" y="284" width="20" height="16"></rect>
        <rect id="Rectangle" fill="#0001B3" x="0" y="300" width="20" height="17"></rect>
        <rect id="Rectangle" fill="#00005A" x="0" y="317" width="20" height="18"></rect>
        <rect id="Rectangle" fill="#000000" x="0" y="335" width="20" height="15"></rect>
    </g>
</svg>
